<svg id="Capa_1" enable-background="new 0 0 512 512" height="512" viewBox="0 0 512 512" width="512" xmlns="http://www.w3.org/2000/svg"><g><g fill="#00b27a"><path d="m137.789 403.389v71.111c0 16.568 13.432 30 30 30s30-13.432 30-30v-71.111z"/><path d="m281.177 403.389v71.111c0 16.568 13.432 30 30 30s30-13.432 30-30v-71.111z"/></g><g><path d="m346.911 235.654c-25.255 2.997-50.271 8.691-74.683 17.067-31.925 10.958-63.195-17.616-55.996-50.043 8.519-38.378 14.33-64.812 18.305-83.159.008-.04.018-.08.026-.12 6.014-27.763 7.81-36.948 8.409-40.92 3.56-23.68-6.421-40.317-12.687-48.126-11.589-14.444-29.116-22.853-47.633-22.853-25.7 0-45.501 16.263-55.529 38.566h-19.203c-33.681 0-61.92 26.91-61.92 60.591 0 32.765 23.187 56.187 52.535 60.784-4.894 22.873-13.732 62.866-13.732 111.557 0 39.7 9.259 68.144 28.123 103.075 38.446 71.192 122.733 103.891 198.937 77.744 18.339-6.293 37.194-10.296 56.21-11.996 21.799 0 42.091 11.122 53.818 29.497l12.226 19.157c9.305 14.58 31.883 7.989 31.883-9.307v-137.402c0-72.799-51.861-122.09-119.089-114.112z" fill="#5fd9b3"/><path d="m449.444 434.155c-13.55-7.17-20.616-16.179-27.553-27.835-11.727-18.375-32.02-29.497-53.818-29.497-19.08 1.705-27.997 6.745-46.21 12.996-19.258 6.608-42.282 5.824-64.532 4.684-19.037-.975-36.78-9.922-48.884-24.647-12.871-15.66-18.055-36.26-14.13-56.147l21.549-109.172c.11-.618.229-1.236.366-1.857 8.519-38.378 14.33-64.812 18.305-83.159.008-.04.018-.08.026-.12 6.014-27.763 7.81-36.948 8.409-40.92 3.56-23.68-6.421-40.317-12.687-48.126-11.589-14.446-29.116-22.855-47.633-22.855-25.7 0-45.501 16.263-55.529 38.566h-19.459c-33.955 0-62.219 27.786-61.655 61.737.534 32.164 23.521 55.094 52.525 59.638-4.894 22.873-13.732 62.866-13.732 111.557 0 39.7 9.259 68.144 28.123 103.075 19.142 35.446 49.649 61.345 84.863 75.195l.004-.009c35.512 13.967 75.807 15.686 114.07 2.558 18.339-6.293 37.194-10.296 56.21-11.996 21.799 0 42.091 11.122 53.818 29.497l12.226 19.157c9.305 14.58 31.883 7.989 31.883-9.307v-48.958c-6.582 0-11.384-1.319-16.555-4.055z" fill="#00ce8e"/></g><path d="m176.185 78.483c-16.212 0-29.354 10.466-29.354 23.377s13.143 23.377 29.354 23.377c16.212 0 29.355-10.466 29.355-23.377s-13.143-23.377-29.355-23.377z" fill="#ff8e9e"/><g fill="#00ce8e"><path d="m227.789 393.389c-16.569 0-30 13.431-30 30v50.487c0 16.346 12.816 30.164 29.156 30.613 16.954.465 30.844-13.14 30.844-29.989v-51.111c0-16.569-13.431-30-30-30z"/><path d="m371.177 393.389c-16.569 0-30 13.431-30 30v50.487c0 16.346 12.816 30.164 29.156 30.613 16.954.465 30.844-13.14 30.844-29.989v-51.111c0-16.569-13.432-30-30-30z"/></g><g><path d="m151.576 67.356v12c0 4.143 3.357 7.5 7.5 7.5s7.5-3.357 7.5-7.5v-12c0-4.143-3.357-7.5-7.5-7.5s-7.5 3.358-7.5 7.5z"/><path d="m74.017 87.811-8.485 8.484c-2.93 2.929-2.93 7.678-.001 10.606 2.929 2.929 7.677 2.93 10.606.001l8.485-8.484c2.93-2.929 2.93-7.678.001-10.606-2.93-2.929-7.679-2.93-10.606-.001z"/><path d="m451.118 273.693c-2.367-3.399-7.041-4.238-10.44-1.87-3.399 2.366-4.236 7.041-1.87 10.44 12.883 18.506 19.692 41.848 19.692 67.502v137.403c0 6.386-5.147 9.831-9.991 9.831-1.928 0-5.539-.592-8.07-4.559l-12.226-19.157c-5.07-7.944-11.773-14.879-19.536-20.262v-29.634c0-4.143-3.357-7.5-7.5-7.5s-7.5 3.357-7.5 7.5v51.113c0 12.662-10.411 22.831-23.138 22.491-12.055-.331-21.862-10.7-21.862-23.115v-50.487c0-4.143-3.357-7.5-7.5-7.5s-7.5 3.357-7.5 7.5v22.396c-26.319 6.115-37.42 13.913-68.388 15.311v-37.706c0-4.143-3.357-7.5-7.5-7.5s-7.5 3.357-7.5 7.5v51.11c0 12.733-10.486 22.83-23.138 22.491-12.055-.331-21.862-10.7-21.862-23.115 0-10.342 0-40.044 0-50.487 0-4.143-3.357-7.5-7.5-7.5s-7.5 3.357-7.5 7.5v22.437c-29.213-13.933-54.379-36.976-70.764-67.315-19.845-36.748-27.223-63.719-27.223-99.513 0-43.961 7.324-80.698 12.297-104.057h34.372c4.143 0 7.5-3.357 7.5-7.5s-3.357-7.5-7.5-7.5h-39.788c-27.345-4.512-45.683-25.859-45.683-53.284 0-29.274 24.413-53.091 54.42-53.091h16.096l1.756 1.756c2.931 2.929 7.678 2.928 10.607 0 2.929-2.93 2.929-7.678 0-10.607l-.149-.149c10.047-18.607 27.085-29.566 46.422-29.566 32.348 0 57.986 28.522 52.903 62.36-1.957 12.977-23.816 110.942-26.646 123.693-8.463 38.165 28.276 71.628 65.752 58.761 23.753-8.149 48.358-13.772 73.135-16.713 28.107-3.339 53.085 4.036 72.069 18.989 3.254 2.563 7.97 2.004 10.532-1.251 2.563-3.254 2.003-7.97-1.251-10.532-23.651-18.629-53.111-25.67-83.119-22.101-25.829 3.064-51.478 8.926-76.234 17.42-26.479 9.09-52.13-14.761-46.24-41.324 3.046-13.721 24.774-111.043 26.836-124.709 6.481-43.129-26.422-79.593-67.737-79.593-25.438 0-47.64 14.321-60.229 38.566h-14.503c-38.278 0-69.42 30.546-69.42 68.091 0 32.073 20.658 58.447 51.13 66.563-5.088 24.004-12.327 61.147-12.327 105.777 0 43.897 11.603 74.379 29.024 106.64 6.801 12.594 14.793 23.745 23.962 33.874v17.09c0 4.143 3.357 7.5 7.5 7.5s7.5-3.357 7.5-7.5v-2.441c13.389 11.579 28.532 21.073 45 28.118v12.221c0 12.406-10.094 22.5-22.5 22.5s-22.5-10.094-22.5-22.5v-7.898c0-4.143-3.357-7.5-7.5-7.5s-7.5 3.357-7.5 7.5v7.898c0 20.678 16.822 37.5 37.5 37.5 12.34 0 23.304-5.993 30.142-15.219 6.865 9.2 17.681 15.219 29.872 15.219 20.178 0 36.612-15.913 37.447-35.89 2.817-.115 5.636-.311 8.454-.565.556 20.196 17.145 36.456 37.473 36.456 12.34 0 23.304-5.993 30.142-15.219 6.864 9.2 17.681 15.219 29.871 15.219 19.029 0 37.486-14.445 37.486-39.349 5.022 5.219 5.936 7.206 19.117 27.861 4.66 7.301 12.211 11.488 20.715 11.488 12.284 0 24.991-9.288 24.991-24.831v-137.403c.001-28.734-7.738-55.038-22.381-76.073zm-117.441 200.807c0 12.406-10.094 22.5-22.5 22.5-11.576 0-22.5-8.937-22.5-23.454 20.479-3.672 24.906-7.352 45-12.336 0 15.949-.004 12.085.016 13.29z"/></g></g></svg>