<svg width="177" height="77" viewBox="0 0 177 77" fill="none" xmlns="http://www.w3.org/2000/svg">
<path d="M33.6638 57.0877C37.7053 53.843 41.0592 51.0084 44.5576 48.3791C50.4727 43.8953 56.5128 39.7338 63.9508 38.0504C71.4987 36.3499 77.9302 38.352 82.5519 44.4296C85.3839 48.1658 87.2075 52.6653 89.3267 56.8914C90.1466 58.5482 90.5185 60.4641 91.3777 63.1016C93.05 59.3509 94.318 56.384 95.7074 53.4741C99.0728 46.3491 102.153 39.0785 105.973 32.2245C111.161 22.8056 119.231 20.8346 128.44 26.4673C132.05 28.6788 135.163 31.8021 138.48 34.5522C139.473 35.3852 140.336 36.3521 141.443 37.4332C141.974 29.9502 142.373 22.8291 143.046 15.7795C144.629 -0.671447 157.258 -2.05828 167.243 3.49219C169.914 4.97612 172.279 7.15263 174.59 9.22362C176.09 10.6613 176.674 12.7341 175.089 14.3838C173.671 15.8939 171.846 15.2657 170.246 14.1473C168.651 13.0659 167.113 11.862 165.437 10.983C163.475 9.95848 161.477 8.93961 159.353 8.31978C153.377 6.58879 149.843 8.5025 148.465 14.6366C147.482 18.9635 147.127 23.459 146.724 27.8861C146.348 32.0052 146.167 36.1701 145.986 40.335C145.867 42.4787 145.675 44.6338 143.547 45.6845C141.106 46.8976 139.285 45.3201 137.596 43.8738C135.435 42.0452 133.564 39.906 131.31 38.2057C128.493 36.0232 125.609 33.8892 122.531 32.2026C118.348 29.9281 115.658 30.4968 112.879 34.3808C110.225 38.0939 107.72 42.0493 105.691 46.159C101.387 54.9854 97.3997 63.9147 93.4182 72.881C92.4698 75.0014 91.3195 76.5459 88.9401 76.459C86.6765 76.3921 85.6984 74.6839 85.0892 72.6909C84.0132 69.1382 83.0724 65.4887 81.8187 62.0014C80.7072 58.9476 79.511 55.831 77.8781 53.0477C73.5322 45.599 68.3008 43.8285 60.2362 46.5578C54.168 48.5984 48.6869 51.7625 43.6141 55.6224C39.9495 58.3913 36.4718 61.3969 32.9403 64.2969C31.0759 65.8382 29.144 67.4278 26.5889 65.9639C24.1919 64.5514 24.1798 62.0484 24.2891 59.6025C24.3541 58.5677 24.5716 57.5472 24.7524 56.5324C25.1507 54.4972 25.4275 52.4049 26.0207 50.4154C30.334 35.5909 24.0606 24.9111 12.7803 16.3352C10.6962 14.7604 8.11146 13.8324 5.71802 12.6851C4.53964 12.1085 3.15046 11.8683 2.06487 11.1635C1.27621 10.6784 0.322325 9.61169 0.396624 8.87908C0.459425 8.07234 1.5182 7.14929 2.23097 6.65936C3.79745 5.61972 6.10571 5.4899 7.82274 5.9071C11.2201 6.74717 14.6943 7.84099 17.6736 9.61873C24.2878 13.5281 29.3347 19.1983 33.3961 25.7803C36.8567 31.3926 37.4738 37.5592 36.4659 43.9016C35.7541 48.0348 34.726 52.0652 33.6638 57.0877Z" fill="#DAD9D9"/>
</svg>
