<svg width="433" height="170" viewBox="0 0 433 170" fill="none" xmlns="http://www.w3.org/2000/svg">
<path d="M140.782 27.7777C132.605 27.7951 124.759 27.8448 116.918 27.8645C115.355 27.8756 114.252 27.8816 112.292 27.5674C110.833 27.3495 107.752 26.8198 108.323 25.2791C108.925 24.0557 109.506 23.2641 112.225 22.9767C119.248 22.2706 126.311 22.6311 133.321 22.9501C139.511 23.2361 144.226 23.5503 149.686 24.132C152.236 24.4039 152.997 25.8581 152.252 28.1439C151.582 30.1952 150.931 32.3122 149.895 34.1996C146.196 41.0252 142.337 47.7267 138.526 54.4996C138.057 55.3439 137.742 56.0306 137.044 56.9553C136.187 58.0676 135.624 58.9249 134.424 58.3206C133.277 57.7577 133.682 55.9671 134.062 55.1058C137.081 47.8381 143.553 32.9502 143.721 32.0793C139.368 33.8591 135.304 35.4139 131.318 37.2017C103.615 49.786 77.0175 64.2643 54.0928 84.9602C35.9457 101.342 20.0074 119.612 6.84073 140.345C6.05546 141.565 5.15787 142.731 4.27182 143.838C3.09257 145.355 2.21603 145.934 1.40536 145.374C0.0253055 144.112 0.568624 142.877 0.918177 141.855C1.58775 139.803 2.6944 137.867 3.75998 135.985C18.2709 110.964 37.6621 90.3364 59.7896 72.1967C82.4992 53.577 108.331 40.8514 135.306 30.307C136.749 29.8058 140.205 28.2275 140.782 27.7777Z" fill="#DBDBDB"/>
<path d="M192.432 25.264C191.328 25.264 190.384 24.96 189.6 24.352C188.816 23.744 188.216 22.912 187.8 21.856C187.4 20.8 187.2 19.6 187.2 18.256C187.2 16.752 187.552 15.328 188.256 13.984C188.96 12.624 189.88 11.536 191.016 10.72C192.168 9.888 193.36 9.472 194.592 9.472C195.632 9.472 196.432 9.704 196.992 10.168C197.552 10.632 197.832 11.176 197.832 11.8C197.832 12.168 197.72 12.504 197.496 12.808C197.288 13.112 196.984 13.344 196.584 13.504C196.536 13.408 196.512 13.256 196.512 13.048C196.512 12.856 196.536 12.664 196.584 12.472C196.616 12.216 196.632 12.032 196.632 11.92C196.632 11.76 196.608 11.624 196.56 11.512C196.336 10.952 195.728 10.672 194.736 10.672C194.464 10.672 194.144 10.696 193.776 10.744C192.928 10.856 192.088 11.28 191.256 12.016C190.424 12.736 189.744 13.64 189.216 14.728C188.688 15.816 188.424 16.928 188.424 18.064C188.424 19.056 188.584 20 188.904 20.896C189.24 21.776 189.72 22.488 190.344 23.032C190.968 23.576 191.712 23.848 192.576 23.848C193.696 23.848 194.624 23.712 195.36 23.44C196.112 23.168 196.848 22.752 197.568 22.192C197.648 22.128 197.736 22.096 197.832 22.096C198.008 22.096 198.128 22.2 198.192 22.408C198.272 22.792 198.016 23.208 197.424 23.656C196.832 24.104 196.064 24.488 195.12 24.808C194.176 25.112 193.28 25.264 192.432 25.264ZM205.1 25.024C204.156 25.024 203.3 24.816 202.532 24.4C201.78 23.968 201.188 23.376 200.756 22.624C200.34 21.856 200.132 20.984 200.132 20.008C200.132 18.408 200.716 17.216 201.884 16.432C203.068 15.648 204.516 15.256 206.228 15.256C207.012 15.256 207.74 15.448 208.412 15.832C209.1 16.216 209.652 16.768 210.068 17.488C210.484 18.208 210.692 19.04 210.692 19.984C210.692 21.008 210.428 21.904 209.9 22.672C209.372 23.424 208.676 24.008 207.812 24.424C206.964 24.824 206.06 25.024 205.1 25.024ZM204.836 23.656C206.324 23.656 207.452 23.32 208.22 22.648C208.988 21.976 209.372 20.992 209.372 19.696C209.372 18.816 209.068 18.056 208.46 17.416C207.868 16.776 207.036 16.456 205.964 16.456C205.244 16.456 204.516 16.592 203.78 16.864C203.044 17.136 202.436 17.544 201.956 18.088C201.476 18.632 201.236 19.288 201.236 20.056C201.236 20.696 201.396 21.296 201.716 21.856C202.036 22.4 202.468 22.84 203.012 23.176C203.572 23.496 204.18 23.656 204.836 23.656ZM228.177 25.024C227.937 25.024 227.793 24.96 227.745 24.832C227.697 24.688 227.673 24.472 227.673 24.184C227.689 24.072 227.697 23.944 227.697 23.8C227.697 23.64 227.705 23.52 227.721 23.44C227.817 22.672 227.865 21.944 227.865 21.256C227.865 19.736 227.609 18.552 227.097 17.704C226.585 16.84 225.777 16.408 224.673 16.408C224.065 16.408 223.457 16.56 222.849 16.864C222.257 17.168 221.769 17.544 221.385 17.992C221.017 18.44 220.833 18.848 220.833 19.216C220.913 19.68 221.057 20.248 221.265 20.92C221.281 21 221.345 21.248 221.457 21.664C221.585 22.08 221.649 22.456 221.649 22.792L221.673 23.248C221.673 23.504 221.545 23.632 221.289 23.632C220.969 23.632 220.705 23.424 220.497 23.008C220.305 22.592 220.089 21.944 219.849 21.064C219.609 20.2 219.377 19.488 219.153 18.928C218.929 18.368 218.625 17.888 218.241 17.488C217.857 17.088 217.369 16.888 216.777 16.888C215.961 16.888 215.321 17.168 214.857 17.728C214.409 18.288 214.185 18.976 214.185 19.792C214.185 20.336 214.233 21.056 214.329 21.952C214.409 22.624 214.449 23.2 214.449 23.68C214.449 23.968 214.417 24.184 214.353 24.328C214.289 24.472 214.137 24.544 213.897 24.544C213.577 24.544 213.353 24.44 213.225 24.232C213.097 24.008 213.033 23.672 213.033 23.224C213.033 22.344 212.985 21.28 212.889 20.032C212.873 19.872 212.841 19.464 212.793 18.808C212.745 18.136 212.737 17.464 212.769 16.792L212.793 16C212.889 15.904 213.001 15.856 213.129 15.856C213.305 15.856 213.449 15.968 213.561 16.192C213.689 16.4 213.753 16.72 213.753 17.152C213.993 16.736 214.345 16.36 214.809 16.024C215.273 15.688 215.761 15.52 216.273 15.52C217.153 15.52 217.881 15.704 218.457 16.072C219.049 16.424 219.585 17 220.065 17.8C220.513 16.984 221.185 16.288 222.081 15.712C222.993 15.136 223.929 14.848 224.889 14.848C225.881 14.848 226.705 15.224 227.361 15.976C228.033 16.728 228.521 17.632 228.825 18.688C229.145 19.744 229.305 20.72 229.305 21.616C229.305 22.416 229.233 23.184 229.089 23.92C228.961 24.656 228.657 25.024 228.177 25.024ZM234.065 33.544C233.745 33.544 233.361 32.688 232.913 30.976C232.481 29.264 232.089 27.36 231.737 25.264C231.401 23.184 231.233 21.872 231.233 21.328C231.233 19.712 231.777 18.536 232.865 17.8C233.953 17.048 235.353 16.672 237.065 16.672C237.977 16.672 238.841 16.864 239.657 17.248C240.473 17.616 241.129 18.152 241.625 18.856C242.121 19.544 242.369 20.344 242.369 21.256C242.369 22.392 241.969 23.192 241.169 23.656C240.385 24.12 239.393 24.352 238.193 24.352C236.945 24.352 235.881 24.144 235.001 23.728C234.137 23.296 233.705 22.712 233.705 21.976L233.729 21.736C233.841 21.608 233.961 21.544 234.089 21.544C234.201 21.544 234.321 21.592 234.449 21.688C234.593 21.768 234.745 21.864 234.905 21.976C235.401 22.344 235.889 22.64 236.369 22.864C236.865 23.088 237.481 23.2 238.217 23.2C239.225 23.2 239.937 23.024 240.353 22.672C240.785 22.304 241.001 21.728 241.001 20.944C241.001 20.368 240.809 19.856 240.425 19.408C240.041 18.96 239.545 18.616 238.937 18.376C238.329 18.136 237.705 18.016 237.065 18.016C235.577 18.016 234.457 18.336 233.705 18.976C232.953 19.6 232.617 20.648 232.697 22.12C232.841 24.616 233.065 26.712 233.369 28.408C233.689 30.104 234.241 31.544 235.025 32.728L235.049 32.776C235.049 32.808 235.009 32.84 234.929 32.872C234.865 32.92 234.817 32.96 234.785 32.992C234.593 33.296 234.353 33.48 234.065 33.544ZM244.882 24.832C244.53 23.088 244.258 21.024 244.066 18.64C243.89 16.24 243.802 13.92 243.802 11.68C243.802 10.56 243.826 9.568 243.874 8.704C243.874 8.496 244.034 8.392 244.354 8.392C244.61 8.392 244.77 8.456 244.834 8.584C244.914 8.712 244.954 8.912 244.954 9.184C244.954 11.776 245.002 13.992 245.098 15.832C245.194 17.656 245.322 19.624 245.482 21.736C245.578 23.096 245.642 24.016 245.674 24.496C245.69 24.752 245.554 24.88 245.266 24.88C245.17 24.88 245.042 24.864 244.882 24.832ZM253.257 25C252.233 25 251.289 24.8 250.425 24.4C249.561 24 248.873 23.432 248.361 22.696C247.849 21.96 247.593 21.112 247.593 20.152C247.593 19.08 247.793 18.08 248.193 17.152C248.593 16.208 249.177 15.456 249.945 14.896C250.729 14.32 251.641 14.032 252.681 14.032C253.769 14.032 254.593 14.384 255.153 15.088C255.713 15.776 255.977 16.648 255.945 17.704C255.945 18.648 255.569 19.368 254.817 19.864C254.081 20.36 253.137 20.608 251.985 20.608C251.809 20.608 251.545 20.592 251.193 20.56C250.617 20.496 250.209 20.408 249.969 20.296C249.729 20.184 249.609 19.96 249.609 19.624C249.609 19.512 249.641 19.432 249.705 19.384C249.769 19.32 249.897 19.288 250.089 19.288C250.297 19.288 250.665 19.336 251.193 19.432C251.705 19.528 252.161 19.576 252.561 19.576C254.033 19.576 254.769 18.936 254.769 17.656C254.769 16.888 254.625 16.28 254.337 15.832C254.065 15.384 253.577 15.16 252.873 15.16C252.105 15.16 251.417 15.368 250.809 15.784C250.201 16.184 249.729 16.712 249.393 17.368C249.073 18.024 248.913 18.72 248.913 19.456C248.913 20.72 249.265 21.76 249.969 22.576C250.673 23.376 251.761 23.776 253.233 23.776C253.409 23.776 253.705 23.76 254.121 23.728C254.297 23.712 254.513 23.664 254.769 23.584C255.025 23.504 255.209 23.448 255.321 23.416C256.009 23.176 256.513 23.056 256.833 23.056C257.073 23.056 257.257 23.12 257.385 23.248C256.985 23.856 256.385 24.304 255.585 24.592C254.801 24.864 254.025 25 253.257 25ZM262.215 25C262.055 25.032 261.951 25.048 261.903 25.048C261.407 25.048 261.063 24.68 260.871 23.944C260.695 23.208 260.607 22.176 260.607 20.848C260.607 20.304 260.623 19.456 260.655 18.304C260.687 17.6 260.703 17.072 260.703 16.72C258.735 16.72 257.751 16.496 257.751 16.048C257.751 15.904 257.767 15.792 257.799 15.712C257.847 15.632 257.943 15.592 258.087 15.592L260.703 15.424C260.687 14.64 260.647 13.784 260.583 12.856C260.519 12.024 260.479 11.256 260.463 10.552C260.463 10.376 260.535 10.256 260.679 10.192C260.823 10.112 260.975 10.072 261.135 10.072C261.327 10.072 261.487 10.176 261.615 10.384C261.743 10.576 261.807 10.776 261.807 10.984L261.975 15.376L263.967 15.472C264.271 15.44 264.527 15.496 264.735 15.64C264.959 15.784 265.079 16.024 265.095 16.36C264.759 16.504 264.391 16.592 263.991 16.624C263.591 16.656 262.919 16.672 261.975 16.672C261.975 18.16 262.047 20.608 262.191 24.016C262.191 24.368 262.191 24.616 262.191 24.76C262.207 24.888 262.215 24.968 262.215 25ZM272.077 25C271.053 25 270.109 24.8 269.245 24.4C268.381 24 267.693 23.432 267.181 22.696C266.669 21.96 266.413 21.112 266.413 20.152C266.413 19.08 266.613 18.08 267.013 17.152C267.413 16.208 267.997 15.456 268.765 14.896C269.549 14.32 270.461 14.032 271.501 14.032C272.589 14.032 273.413 14.384 273.973 15.088C274.533 15.776 274.797 16.648 274.765 17.704C274.765 18.648 274.389 19.368 273.637 19.864C272.901 20.36 271.957 20.608 270.805 20.608C270.629 20.608 270.365 20.592 270.013 20.56C269.437 20.496 269.029 20.408 268.789 20.296C268.549 20.184 268.429 19.96 268.429 19.624C268.429 19.512 268.461 19.432 268.525 19.384C268.589 19.32 268.717 19.288 268.909 19.288C269.117 19.288 269.485 19.336 270.013 19.432C270.525 19.528 270.981 19.576 271.381 19.576C272.853 19.576 273.589 18.936 273.589 17.656C273.589 16.888 273.445 16.28 273.157 15.832C272.885 15.384 272.397 15.16 271.693 15.16C270.925 15.16 270.237 15.368 269.629 15.784C269.021 16.184 268.549 16.712 268.213 17.368C267.893 18.024 267.733 18.72 267.733 19.456C267.733 20.72 268.085 21.76 268.789 22.576C269.493 23.376 270.581 23.776 272.053 23.776C272.229 23.776 272.525 23.76 272.941 23.728C273.117 23.712 273.333 23.664 273.589 23.584C273.845 23.504 274.029 23.448 274.141 23.416C274.829 23.176 275.333 23.056 275.653 23.056C275.893 23.056 276.077 23.12 276.205 23.248C275.805 23.856 275.205 24.304 274.405 24.592C273.621 24.864 272.845 25 272.077 25ZM278.491 24.832C278.139 23.088 277.867 21.024 277.675 18.64C277.499 16.24 277.411 13.92 277.411 11.68C277.411 10.56 277.435 9.568 277.483 8.704C277.483 8.496 277.643 8.392 277.963 8.392C278.219 8.392 278.379 8.456 278.443 8.584C278.523 8.712 278.563 8.912 278.563 9.184C278.563 11.776 278.611 13.992 278.707 15.832C278.803 17.656 278.931 19.624 279.091 21.736C279.187 23.096 279.251 24.016 279.283 24.496C279.299 24.752 279.163 24.88 278.875 24.88C278.779 24.88 278.651 24.864 278.491 24.832ZM287.778 36.352C286.69 36.352 285.714 36.12 284.85 35.656C284.002 35.192 283.322 34.656 282.81 34.048C282.298 33.44 282.01 32.944 281.946 32.56C281.882 32.208 281.962 31.936 282.186 31.744C282.426 31.552 282.722 31.472 283.074 31.504C283.57 32.688 284.162 33.6 284.85 34.24C285.538 34.88 286.522 35.216 287.802 35.248C288.698 35.264 289.41 34.688 289.938 33.52C290.482 32.368 290.866 30.952 291.09 29.272C291.314 27.608 291.426 25.968 291.426 24.352C291.426 23.52 291.402 22.84 291.354 22.312C290.138 23.8 288.586 24.544 286.698 24.544C285.066 24.544 283.81 23.768 282.93 22.216C282.066 20.664 281.506 18.912 281.25 16.96C281.218 16.768 281.202 16.496 281.202 16.144C281.202 15.136 281.53 14.632 282.186 14.632C282.25 14.632 282.338 15.032 282.45 15.832C282.626 17.096 282.842 18.232 283.098 19.24C283.354 20.248 283.778 21.168 284.37 22C284.978 22.816 285.778 23.224 286.77 23.224C287.554 23.224 288.354 22.968 289.17 22.456C290.002 21.928 290.602 21.344 290.97 20.704C290.97 19.488 290.81 18.4 290.49 17.44C290.186 16.464 290.026 15.944 290.01 15.88C289.978 15.528 289.962 15.304 289.962 15.208C289.962 14.888 290.01 14.656 290.106 14.512C290.218 14.368 290.378 14.296 290.586 14.296C290.81 14.296 291.066 14.752 291.354 15.664C291.642 16.576 291.898 17.768 292.122 19.24C292.346 20.712 292.498 22.248 292.578 23.848C292.61 24.68 292.626 25.296 292.626 25.696C292.626 28.768 292.242 31.312 291.474 33.328C290.722 35.344 289.49 36.352 287.778 36.352ZM305.674 24.712C305.418 24.68 305.178 24.664 304.954 24.664C304.746 24.648 304.602 24.64 304.522 24.64C304.458 24.624 304.426 24.592 304.426 24.544C304.314 24.032 304.234 23.584 304.186 23.2C304.138 22.8 304.106 22.432 304.09 22.096C304.074 21.616 304.034 21.144 303.97 20.68C303.922 20.2 303.81 19.568 303.634 18.784C302.738 18.928 302.138 19 301.834 19C301.514 19 301.274 18.944 301.114 18.832C300.954 18.704 300.874 18.504 300.874 18.232C300.874 18.072 300.962 17.992 301.138 17.992L301.858 17.92C301.97 17.904 302.482 17.84 303.394 17.728C303.362 17.264 303.298 16.312 303.202 14.872C303.154 13.72 303.082 12.8 302.986 12.112L299.986 12.376C299.762 12.52 299.586 12.592 299.458 12.592C299.266 12.448 299.146 12.264 299.098 12.04C299.482 11.624 300.402 11.28 301.858 11.008C303.33 10.736 304.922 10.6 306.634 10.6C308.778 10.6 310.618 10.832 312.154 11.296C313.69 11.744 314.522 12.44 314.65 13.384C314.154 13.384 313.674 13.328 313.21 13.216C312.746 13.104 312.162 12.936 311.458 12.712C310.562 12.408 309.738 12.176 308.986 12.016C308.25 11.856 307.418 11.776 306.49 11.776C305.898 11.776 305.25 11.824 304.546 11.92C304.546 13.408 304.586 15.288 304.666 17.56L305.506 17.488C308.066 17.28 309.562 17.176 309.994 17.176C310.202 17.176 310.346 17.192 310.426 17.224C310.506 17.24 310.57 17.272 310.618 17.32C310.634 17.8 310.178 18.144 309.25 18.352C308.322 18.544 306.85 18.68 304.834 18.76C304.914 19.544 305.066 20.568 305.29 21.832C305.498 23.016 305.626 23.976 305.674 24.712ZM316.291 25C315.635 23.72 315.115 22.216 314.731 20.488C314.363 18.76 314.179 17.264 314.179 16C314.179 15.504 314.291 15.184 314.515 15.04C314.643 14.96 314.739 14.92 314.803 14.92C314.915 14.92 314.995 15.008 315.043 15.184C315.107 15.36 315.171 15.68 315.235 16.144L315.355 17.008C315.531 16.144 315.867 15.464 316.363 14.968C316.875 14.456 317.499 14.2 318.235 14.2C319.051 14.2 319.659 14.36 320.059 14.68C320.459 14.984 320.659 15.496 320.659 16.216C319.859 15.832 319.131 15.64 318.475 15.64C317.851 15.64 317.315 15.808 316.867 16.144C316.419 16.48 316.107 16.976 315.931 17.632C315.787 18.08 315.715 18.504 315.715 18.904C315.715 19.336 315.771 19.744 315.883 20.128C316.011 20.496 316.203 20.952 316.459 21.496C316.699 22.056 316.883 22.536 317.011 22.936C317.155 23.336 317.235 23.768 317.251 24.232C317.251 24.504 317.155 24.704 316.963 24.832C316.771 24.944 316.547 25 316.291 25ZM327.272 25C326.248 25 325.304 24.8 324.44 24.4C323.576 24 322.888 23.432 322.376 22.696C321.864 21.96 321.608 21.112 321.608 20.152C321.608 19.08 321.808 18.08 322.208 17.152C322.608 16.208 323.192 15.456 323.96 14.896C324.744 14.32 325.656 14.032 326.696 14.032C327.784 14.032 328.608 14.384 329.168 15.088C329.728 15.776 329.992 16.648 329.96 17.704C329.96 18.648 329.584 19.368 328.832 19.864C328.096 20.36 327.152 20.608 326 20.608C325.824 20.608 325.56 20.592 325.208 20.56C324.632 20.496 324.224 20.408 323.984 20.296C323.744 20.184 323.624 19.96 323.624 19.624C323.624 19.512 323.656 19.432 323.72 19.384C323.784 19.32 323.912 19.288 324.104 19.288C324.312 19.288 324.68 19.336 325.208 19.432C325.72 19.528 326.176 19.576 326.576 19.576C328.048 19.576 328.784 18.936 328.784 17.656C328.784 16.888 328.64 16.28 328.352 15.832C328.08 15.384 327.592 15.16 326.888 15.16C326.12 15.16 325.432 15.368 324.824 15.784C324.216 16.184 323.744 16.712 323.408 17.368C323.088 18.024 322.928 18.72 322.928 19.456C322.928 20.72 323.28 21.76 323.984 22.576C324.688 23.376 325.776 23.776 327.248 23.776C327.424 23.776 327.72 23.76 328.136 23.728C328.312 23.712 328.528 23.664 328.784 23.584C329.04 23.504 329.224 23.448 329.336 23.416C330.024 23.176 330.528 23.056 330.848 23.056C331.088 23.056 331.272 23.12 331.4 23.248C331 23.856 330.4 24.304 329.6 24.592C328.816 24.864 328.04 25 327.272 25ZM338.03 25C337.006 25 336.062 24.8 335.198 24.4C334.334 24 333.646 23.432 333.134 22.696C332.622 21.96 332.366 21.112 332.366 20.152C332.366 19.08 332.566 18.08 332.966 17.152C333.366 16.208 333.95 15.456 334.718 14.896C335.502 14.32 336.414 14.032 337.454 14.032C338.542 14.032 339.366 14.384 339.926 15.088C340.486 15.776 340.75 16.648 340.718 17.704C340.718 18.648 340.342 19.368 339.59 19.864C338.854 20.36 337.91 20.608 336.758 20.608C336.582 20.608 336.318 20.592 335.966 20.56C335.39 20.496 334.982 20.408 334.742 20.296C334.502 20.184 334.382 19.96 334.382 19.624C334.382 19.512 334.414 19.432 334.478 19.384C334.542 19.32 334.67 19.288 334.862 19.288C335.07 19.288 335.438 19.336 335.966 19.432C336.478 19.528 336.934 19.576 337.334 19.576C338.806 19.576 339.542 18.936 339.542 17.656C339.542 16.888 339.398 16.28 339.11 15.832C338.838 15.384 338.35 15.16 337.646 15.16C336.878 15.16 336.19 15.368 335.582 15.784C334.974 16.184 334.502 16.712 334.166 17.368C333.846 18.024 333.686 18.72 333.686 19.456C333.686 20.72 334.038 21.76 334.742 22.576C335.446 23.376 336.534 23.776 338.006 23.776C338.182 23.776 338.478 23.76 338.894 23.728C339.07 23.712 339.286 23.664 339.542 23.584C339.798 23.504 339.982 23.448 340.094 23.416C340.782 23.176 341.286 23.056 341.606 23.056C341.846 23.056 342.03 23.12 342.158 23.248C341.758 23.856 341.158 24.304 340.358 24.592C339.574 24.864 338.798 25 338.03 25Z" fill="#757070"/>
</svg>
