<svg width="400" height="209" viewBox="0 0 400 209" fill="none" xmlns="http://www.w3.org/2000/svg">
<path d="M185.515 66.0974C177.17 63.3861 169.151 60.8188 161.148 58.2221C159.55 57.7118 158.423 57.3499 156.534 56.3688C155.123 55.6556 152.166 54.0759 153.289 52.6645C154.333 51.5933 155.203 50.964 158.076 51.5725C165.486 53.1826 172.563 55.9151 179.6 58.5869C185.813 60.9505 190.511 62.8511 195.875 65.2784C198.38 66.4122 198.647 68.1787 197.085 70.307C195.682 72.2167 194.275 74.2007 192.557 75.8177C186.391 81.681 180.105 87.362 173.842 93.1331C173.069 93.8547 172.506 94.4635 171.47 95.1922C170.206 96.0629 169.332 96.7666 168.319 95.7376C167.347 94.7694 168.388 93.0425 169.078 92.2736C174.705 85.7233 186.528 72.4016 187.004 71.5517C181.941 71.9498 177.251 72.2102 172.559 72.7388C139.893 76.5782 107.69 82.7563 77.0514 96.6262C52.7987 107.605 30.1364 121.284 9.43678 138.45C8.20827 139.456 6.8837 140.369 5.59196 141.224C3.85713 142.409 2.76013 142.718 2.13 141.865C1.16507 140.092 2.15222 138.989 2.86743 138.042C4.26973 136.133 6.0774 134.489 7.82411 132.888C31.3987 111.711 58.4092 96.7326 87.3378 85.2548C117.028 73.4722 147.836 68.8613 179.044 66.9C180.692 66.8604 184.77 66.3729 185.515 66.0974Z" fill="#DBDBDB"/>
<path d="M232.192 85.024C230.864 85.024 229.896 84.776 229.288 84.28C228.696 83.784 228.4 82.888 228.4 81.592L228.736 76.216V71.056C228.736 70.656 228.816 70.4 228.976 70.288C229.136 70.16 229.488 70.096 230.032 70.096L231.664 70.144C233.712 70.256 235.712 70.312 237.664 70.312C238.08 70.312 238.408 70.432 238.648 70.672C238.904 70.912 239.032 71.24 239.032 71.656C239.032 71.736 239.008 71.8 238.96 71.848C238.912 71.896 238.856 71.912 238.792 71.896L237.664 71.464L230.152 71.656C230.056 71.656 230 71.648 229.984 71.632C230.048 71.76 230.08 71.872 230.08 71.968V76.216C230.816 76.264 231.528 76.288 232.216 76.288C233.4 76.288 234.704 76.232 236.128 76.12C236.272 76.104 236.488 76.088 236.776 76.072C237.08 76.04 237.248 76.04 237.28 76.072C237.376 76.168 237.448 76.256 237.496 76.336C237.544 76.416 237.576 76.528 237.592 76.672C237.64 77.024 237.104 77.256 235.984 77.368C234.88 77.48 233.4 77.568 231.544 77.632C230.92 77.632 230.4 77.648 229.984 77.68C229.792 78.16 229.696 78.928 229.696 79.984L229.72 81.4V82.96C229.976 83.168 230.256 83.304 230.56 83.368C230.864 83.432 231.36 83.464 232.048 83.464C232.768 83.464 233.472 83.424 234.16 83.344C234.864 83.264 235.28 83.216 235.408 83.2C236.752 83.04 237.752 82.96 238.408 82.96C238.792 82.96 239.056 83 239.2 83.08C239.36 83.144 239.44 83.264 239.44 83.44C239.44 84.496 237.296 85.024 233.008 85.024H232.192ZM247.683 85C246.019 85 244.571 84.712 243.339 84.136C242.123 83.544 241.515 82.512 241.515 81.04C241.515 80.512 241.675 80 241.995 79.504C242.315 79.008 242.787 78.608 243.411 78.304C244.035 77.984 244.795 77.824 245.691 77.824C246.379 77.824 246.963 77.856 247.443 77.92C247.923 77.984 248.475 78.16 249.099 78.448C249.723 78.736 250.371 79.192 251.043 79.816C250.787 78.712 250.403 77.744 249.891 76.912C249.379 76.08 248.803 75.44 248.163 74.992C247.539 74.528 246.923 74.296 246.315 74.296C246.027 74.296 245.755 74.352 245.499 74.464C245.259 74.56 244.963 74.704 244.611 74.896C244.211 75.152 243.915 75.28 243.723 75.28C243.643 75.28 243.571 75.256 243.507 75.208C243.459 75.144 243.435 75.072 243.435 74.992C243.435 74.352 243.715 73.856 244.275 73.504C244.851 73.152 245.547 72.992 246.363 73.024C247.483 73.088 248.507 73.568 249.435 74.464C250.363 75.344 251.091 76.44 251.619 77.752C252.163 79.064 252.435 80.352 252.435 81.616C252.435 81.824 252.419 82.12 252.387 82.504L251.619 82.456C251.011 81.224 250.227 80.352 249.267 79.84C248.323 79.312 247.371 79.048 246.411 79.048C245.179 79.048 244.299 79.232 243.771 79.6C243.243 79.968 242.979 80.504 242.979 81.208C242.979 81.944 243.347 82.536 244.083 82.984C244.819 83.432 245.763 83.656 246.915 83.656C247.555 83.656 248.067 83.624 248.451 83.56C248.835 83.48 249.235 83.376 249.651 83.248C249.987 83.136 250.283 83.056 250.539 83.008C250.795 82.96 251.123 82.936 251.523 82.936C251.971 82.936 252.251 82.968 252.363 83.032C252.491 83.096 252.555 83.24 252.555 83.464C252.555 83.624 252.227 83.824 251.571 84.064C250.915 84.304 250.179 84.52 249.363 84.712C248.547 84.904 247.987 85 247.683 85ZM254.596 82.168C254.82 81.992 255.036 81.904 255.244 81.904C255.436 81.904 255.62 81.96 255.796 82.072C255.988 82.184 256.18 82.328 256.372 82.504C256.564 82.664 256.716 82.784 256.828 82.864C257.196 83.152 257.7 83.376 258.34 83.536C258.98 83.696 259.66 83.776 260.38 83.776C261.196 83.776 261.924 83.624 262.564 83.32C263.22 83 263.548 82.576 263.548 82.048C263.548 81.568 263.372 81.192 263.02 80.92C262.668 80.632 262.244 80.424 261.748 80.296C261.252 80.168 260.596 80.048 259.78 79.936C258.676 79.808 257.796 79.648 257.14 79.456C256.5 79.264 255.988 78.952 255.604 78.52C255.22 78.072 255.028 77.448 255.028 76.648C255.028 75.784 255.436 75.144 256.252 74.728C257.068 74.296 258.004 74.08 259.06 74.08C260.02 74.08 260.836 74.288 261.508 74.704C262.196 75.104 262.548 75.68 262.564 76.432C262.596 76.864 262.532 77.208 262.372 77.464C262.212 77.704 262.02 77.824 261.796 77.824C261.668 77.824 261.556 77.776 261.46 77.68C261.38 77.584 261.34 77.456 261.34 77.296C261.34 77.04 261.428 76.76 261.604 76.456C261.524 76.072 261.26 75.784 260.812 75.592C260.38 75.4 259.86 75.304 259.252 75.304C258.356 75.304 257.644 75.472 257.116 75.808C256.588 76.128 256.324 76.512 256.324 76.96C256.324 77.44 256.516 77.808 256.9 78.064C257.284 78.32 257.748 78.504 258.292 78.616C258.852 78.712 259.644 78.808 260.668 78.904C261.516 79.016 262.204 79.152 262.732 79.312C263.276 79.472 263.732 79.784 264.1 80.248C264.468 80.696 264.652 81.344 264.652 82.192C264.652 83.072 264.244 83.768 263.428 84.28C262.612 84.776 261.636 85.024 260.5 85.024C259.044 85.024 257.74 84.776 256.588 84.28C255.452 83.784 254.788 83.08 254.596 82.168ZM273.263 96.352C272.175 96.352 271.199 96.12 270.335 95.656C269.487 95.192 268.807 94.656 268.295 94.048C267.783 93.44 267.495 92.944 267.431 92.56C267.367 92.208 267.447 91.936 267.671 91.744C267.911 91.552 268.207 91.472 268.559 91.504C269.055 92.688 269.647 93.6 270.335 94.24C271.023 94.88 272.007 95.216 273.287 95.248C274.183 95.264 274.895 94.688 275.423 93.52C275.967 92.368 276.351 90.952 276.575 89.272C276.799 87.608 276.911 85.968 276.911 84.352C276.911 83.52 276.887 82.84 276.839 82.312C275.623 83.8 274.071 84.544 272.183 84.544C270.551 84.544 269.295 83.768 268.415 82.216C267.551 80.664 266.991 78.912 266.735 76.96C266.703 76.768 266.687 76.496 266.687 76.144C266.687 75.136 267.015 74.632 267.671 74.632C267.735 74.632 267.823 75.032 267.935 75.832C268.111 77.096 268.327 78.232 268.583 79.24C268.839 80.248 269.263 81.168 269.855 82C270.463 82.816 271.263 83.224 272.255 83.224C273.039 83.224 273.839 82.968 274.655 82.456C275.487 81.928 276.087 81.344 276.455 80.704C276.455 79.488 276.295 78.4 275.975 77.44C275.671 76.464 275.511 75.944 275.495 75.88C275.463 75.528 275.447 75.304 275.447 75.208C275.447 74.888 275.495 74.656 275.591 74.512C275.703 74.368 275.863 74.296 276.071 74.296C276.295 74.296 276.551 74.752 276.839 75.664C277.127 76.576 277.383 77.768 277.607 79.24C277.831 80.712 277.983 82.248 278.063 83.848C278.095 84.68 278.111 85.296 278.111 85.696C278.111 88.768 277.727 91.312 276.959 93.328C276.207 95.344 274.975 96.352 273.263 96.352ZM289.887 85C289.727 85.032 289.623 85.048 289.575 85.048C289.079 85.048 288.735 84.68 288.543 83.944C288.367 83.208 288.279 82.176 288.279 80.848C288.279 80.304 288.295 79.456 288.327 78.304C288.359 77.6 288.375 77.072 288.375 76.72C286.407 76.72 285.423 76.496 285.423 76.048C285.423 75.904 285.439 75.792 285.471 75.712C285.519 75.632 285.615 75.592 285.759 75.592L288.375 75.424C288.359 74.64 288.319 73.784 288.255 72.856C288.191 72.024 288.151 71.256 288.135 70.552C288.135 70.376 288.207 70.256 288.351 70.192C288.495 70.112 288.647 70.072 288.807 70.072C288.999 70.072 289.159 70.176 289.287 70.384C289.415 70.576 289.479 70.776 289.479 70.984L289.647 75.376L291.639 75.472C291.943 75.44 292.199 75.496 292.407 75.64C292.631 75.784 292.751 76.024 292.767 76.36C292.431 76.504 292.063 76.592 291.663 76.624C291.263 76.656 290.591 76.672 289.647 76.672C289.647 78.16 289.719 80.608 289.863 84.016C289.863 84.368 289.863 84.616 289.863 84.76C289.879 84.888 289.887 84.968 289.887 85ZM299.053 85.024C298.109 85.024 297.253 84.816 296.485 84.4C295.733 83.968 295.141 83.376 294.709 82.624C294.293 81.856 294.085 80.984 294.085 80.008C294.085 78.408 294.669 77.216 295.837 76.432C297.021 75.648 298.469 75.256 300.181 75.256C300.965 75.256 301.693 75.448 302.365 75.832C303.053 76.216 303.605 76.768 304.021 77.488C304.437 78.208 304.645 79.04 304.645 79.984C304.645 81.008 304.381 81.904 303.853 82.672C303.325 83.424 302.629 84.008 301.765 84.424C300.917 84.824 300.013 85.024 299.053 85.024ZM298.789 83.656C300.277 83.656 301.405 83.32 302.173 82.648C302.941 81.976 303.325 80.992 303.325 79.696C303.325 78.816 303.021 78.056 302.413 77.416C301.821 76.776 300.989 76.456 299.917 76.456C299.197 76.456 298.469 76.592 297.733 76.864C296.997 77.136 296.389 77.544 295.909 78.088C295.429 78.632 295.189 79.288 295.189 80.056C295.189 80.696 295.349 81.296 295.669 81.856C295.989 82.4 296.421 82.84 296.965 83.176C297.525 83.496 298.133 83.656 298.789 83.656ZM323.594 84.88C323.306 84.88 323.074 84.76 322.898 84.52C322.738 84.264 322.594 83.88 322.466 83.368C322.338 82.84 322.138 81.928 321.866 80.632C321.594 81.704 321.082 82.56 320.33 83.2C319.578 83.824 318.658 84.136 317.57 84.136C316.578 84.136 315.738 83.792 315.05 83.104C314.378 82.4 313.874 81.48 313.538 80.344C313.202 79.192 313.034 77.952 313.034 76.624C313.034 76.016 313.09 75.496 313.202 75.064C313.33 74.616 313.482 74.28 313.658 74.056C313.85 73.832 314.034 73.728 314.21 73.744C314.402 73.744 314.498 73.872 314.498 74.128C314.498 74.336 314.442 74.664 314.33 75.112C314.218 75.608 314.162 76.176 314.162 76.816C314.162 77.776 314.298 78.712 314.57 79.624C314.858 80.536 315.274 81.288 315.818 81.88C316.378 82.456 317.034 82.744 317.786 82.744C318.41 82.744 318.978 82.56 319.49 82.192C320.002 81.824 320.402 81.36 320.69 80.8C320.994 80.24 321.146 79.688 321.146 79.144V75.328C321.322 74.992 321.562 74.824 321.866 74.824C322.138 74.824 322.322 75.056 322.418 75.52C322.514 75.984 322.562 76.64 322.562 77.488C322.562 78.208 322.554 78.76 322.538 79.144C322.634 79.672 322.778 80.208 322.97 80.752C323.178 81.296 323.434 81.912 323.738 82.6C324.106 83.448 324.29 83.968 324.29 84.16C324.29 84.64 324.058 84.88 323.594 84.88ZM326.338 82.168C326.562 81.992 326.778 81.904 326.986 81.904C327.178 81.904 327.362 81.96 327.538 82.072C327.73 82.184 327.922 82.328 328.114 82.504C328.306 82.664 328.458 82.784 328.57 82.864C328.938 83.152 329.442 83.376 330.082 83.536C330.722 83.696 331.402 83.776 332.122 83.776C332.938 83.776 333.666 83.624 334.306 83.32C334.962 83 335.29 82.576 335.29 82.048C335.29 81.568 335.114 81.192 334.762 80.92C334.41 80.632 333.986 80.424 333.49 80.296C332.994 80.168 332.338 80.048 331.522 79.936C330.418 79.808 329.538 79.648 328.882 79.456C328.242 79.264 327.73 78.952 327.346 78.52C326.962 78.072 326.77 77.448 326.77 76.648C326.77 75.784 327.178 75.144 327.994 74.728C328.81 74.296 329.746 74.08 330.802 74.08C331.762 74.08 332.578 74.288 333.25 74.704C333.938 75.104 334.29 75.68 334.306 76.432C334.338 76.864 334.274 77.208 334.114 77.464C333.954 77.704 333.762 77.824 333.538 77.824C333.41 77.824 333.298 77.776 333.202 77.68C333.122 77.584 333.082 77.456 333.082 77.296C333.082 77.04 333.17 76.76 333.346 76.456C333.266 76.072 333.002 75.784 332.554 75.592C332.122 75.4 331.602 75.304 330.994 75.304C330.098 75.304 329.386 75.472 328.858 75.808C328.33 76.128 328.066 76.512 328.066 76.96C328.066 77.44 328.258 77.808 328.642 78.064C329.026 78.32 329.49 78.504 330.034 78.616C330.594 78.712 331.386 78.808 332.41 78.904C333.258 79.016 333.946 79.152 334.474 79.312C335.018 79.472 335.474 79.784 335.842 80.248C336.21 80.696 336.394 81.344 336.394 82.192C336.394 83.072 335.986 83.768 335.17 84.28C334.354 84.776 333.378 85.024 332.242 85.024C330.786 85.024 329.482 84.776 328.33 84.28C327.194 83.784 326.53 83.08 326.338 82.168ZM344.093 85C343.069 85 342.125 84.8 341.261 84.4C340.397 84 339.709 83.432 339.197 82.696C338.685 81.96 338.429 81.112 338.429 80.152C338.429 79.08 338.629 78.08 339.029 77.152C339.429 76.208 340.013 75.456 340.781 74.896C341.565 74.32 342.477 74.032 343.517 74.032C344.605 74.032 345.429 74.384 345.989 75.088C346.549 75.776 346.813 76.648 346.781 77.704C346.781 78.648 346.405 79.368 345.653 79.864C344.917 80.36 343.973 80.608 342.821 80.608C342.645 80.608 342.381 80.592 342.029 80.56C341.453 80.496 341.045 80.408 340.805 80.296C340.565 80.184 340.445 79.96 340.445 79.624C340.445 79.512 340.477 79.432 340.541 79.384C340.605 79.32 340.733 79.288 340.925 79.288C341.133 79.288 341.501 79.336 342.029 79.432C342.541 79.528 342.997 79.576 343.397 79.576C344.869 79.576 345.605 78.936 345.605 77.656C345.605 76.888 345.461 76.28 345.173 75.832C344.901 75.384 344.413 75.16 343.709 75.16C342.941 75.16 342.253 75.368 341.645 75.784C341.037 76.184 340.565 76.712 340.229 77.368C339.909 78.024 339.749 78.72 339.749 79.456C339.749 80.72 340.101 81.76 340.805 82.576C341.509 83.376 342.597 83.776 344.069 83.776C344.245 83.776 344.541 83.76 344.957 83.728C345.133 83.712 345.349 83.664 345.605 83.584C345.861 83.504 346.045 83.448 346.157 83.416C346.845 83.176 347.349 83.056 347.669 83.056C347.909 83.056 348.093 83.12 348.221 83.248C347.821 83.856 347.221 84.304 346.421 84.592C345.637 84.864 344.861 85 344.093 85Z" fill="#757070"/>
</svg>
