<svg width="393" height="260" viewBox="0 0 393 260" fill="none" xmlns="http://www.w3.org/2000/svg">
<path d="M25.568 11.048C26.032 11.048 26.512 11.504 27.008 12.416C27.504 13.328 27.92 14.376 28.256 15.56C28.592 16.728 28.76 17.6 28.76 18.176C28.76 19.056 28.568 19.848 28.184 20.552C27.816 21.24 27.288 21.784 26.6 22.184C25.912 22.568 25.128 22.76 24.248 22.76C23.032 22.76 21.976 22.432 21.08 21.776C20.2 21.12 19.496 20.368 18.968 19.52C18.44 18.656 17.896 17.624 17.336 16.424L17 15.704L17.048 21.512C17.048 21.864 16.984 22.208 16.856 22.544C16.744 22.864 16.544 23.024 16.256 23.024C15.968 23.024 15.76 22.864 15.632 22.544C15.504 22.208 15.44 21.88 15.44 21.56C15.44 20.536 15.52 19.064 15.68 17.144C15.84 15.224 15.92 13.792 15.92 12.848C15.92 12.624 15.904 12.392 15.872 12.152C15.84 11.912 15.816 11.744 15.8 11.648C15.72 11.216 15.68 10.832 15.68 10.496V10.4C15.728 10.4 15.872 10.368 16.112 10.304C16.368 10.224 16.52 10.184 16.568 10.184H16.808C17.416 12.92 18.312 15.448 19.496 17.768C20.696 20.072 22.336 21.224 24.416 21.224C25.392 21.224 26.128 20.936 26.624 20.36C27.136 19.768 27.392 18.976 27.392 17.984C27.392 17.136 27.256 16.36 26.984 15.656C26.712 14.936 26.304 14.056 25.76 13.016L25.112 11.744C25.064 11.664 25.04 11.584 25.04 11.504C25.04 11.376 25.088 11.272 25.184 11.192C25.28 11.096 25.408 11.048 25.568 11.048ZM17.048 21.512V21.464V21.512ZM36.1233 23.024C35.1793 23.024 34.3233 22.816 33.5553 22.4C32.8033 21.968 32.2113 21.376 31.7793 20.624C31.3633 19.856 31.1553 18.984 31.1553 18.008C31.1553 16.408 31.7393 15.216 32.9073 14.432C34.0913 13.648 35.5393 13.256 37.2513 13.256C38.0353 13.256 38.7633 13.448 39.4353 13.832C40.1233 14.216 40.6753 14.768 41.0913 15.488C41.5073 16.208 41.7153 17.04 41.7153 17.984C41.7153 19.008 41.4513 19.904 40.9233 20.672C40.3953 21.424 39.6993 22.008 38.8353 22.424C37.9873 22.824 37.0833 23.024 36.1233 23.024ZM35.8593 21.656C37.3473 21.656 38.4753 21.32 39.2433 20.648C40.0113 19.976 40.3953 18.992 40.3953 17.696C40.3953 16.816 40.0913 16.056 39.4833 15.416C38.8913 14.776 38.0593 14.456 36.9873 14.456C36.2673 14.456 35.5393 14.592 34.8033 14.864C34.0673 15.136 33.4593 15.544 32.9793 16.088C32.4993 16.632 32.2593 17.288 32.2593 18.056C32.2593 18.696 32.4193 19.296 32.7393 19.856C33.0593 20.4 33.4913 20.84 34.0353 21.176C34.5953 21.496 35.2033 21.656 35.8593 21.656ZM55.7921 23C54.1281 23 52.6801 22.712 51.4481 22.136C50.2321 21.544 49.6241 20.512 49.6241 19.04C49.6241 18.512 49.7841 18 50.1041 17.504C50.4241 17.008 50.8961 16.608 51.5201 16.304C52.1441 15.984 52.9041 15.824 53.8001 15.824C54.4881 15.824 55.0721 15.856 55.5521 15.92C56.0321 15.984 56.5841 16.16 57.2081 16.448C57.8321 16.736 58.4801 17.192 59.1521 17.816C58.8961 16.712 58.5121 15.744 58.0001 14.912C57.4881 14.08 56.9121 13.44 56.2721 12.992C55.6481 12.528 55.0321 12.296 54.4241 12.296C54.1361 12.296 53.8641 12.352 53.6081 12.464C53.3681 12.56 53.0721 12.704 52.7201 12.896C52.3201 13.152 52.0241 13.28 51.8321 13.28C51.7521 13.28 51.6801 13.256 51.6161 13.208C51.5681 13.144 51.5441 13.072 51.5441 12.992C51.5441 12.352 51.8241 11.856 52.3841 11.504C52.9601 11.152 53.6561 10.992 54.4721 11.024C55.5921 11.088 56.6161 11.568 57.5441 12.464C58.4721 13.344 59.2001 14.44 59.7281 15.752C60.2721 17.064 60.5441 18.352 60.5441 19.616C60.5441 19.824 60.5281 20.12 60.4961 20.504L59.7281 20.456C59.1201 19.224 58.3361 18.352 57.3761 17.84C56.4321 17.312 55.4801 17.048 54.5201 17.048C53.2881 17.048 52.4081 17.232 51.8801 17.6C51.3521 17.968 51.0881 18.504 51.0881 19.208C51.0881 19.944 51.4561 20.536 52.1921 20.984C52.9281 21.432 53.8721 21.656 55.0241 21.656C55.6641 21.656 56.1761 21.624 56.5601 21.56C56.9441 21.48 57.3441 21.376 57.7601 21.248C58.0961 21.136 58.3921 21.056 58.6481 21.008C58.9041 20.96 59.2321 20.936 59.6321 20.936C60.0801 20.936 60.3601 20.968 60.4721 21.032C60.6001 21.096 60.6641 21.24 60.6641 21.464C60.6641 21.624 60.3361 21.824 59.6801 22.064C59.0241 22.304 58.2881 22.52 57.4721 22.712C56.6561 22.904 56.0961 23 55.7921 23ZM73.625 22.88C73.337 22.88 73.105 22.76 72.929 22.52C72.769 22.264 72.625 21.88 72.497 21.368C72.369 20.84 72.169 19.928 71.897 18.632C71.625 19.704 71.113 20.56 70.361 21.2C69.609 21.824 68.689 22.136 67.601 22.136C66.609 22.136 65.769 21.792 65.081 21.104C64.409 20.4 63.905 19.48 63.569 18.344C63.233 17.192 63.065 15.952 63.065 14.624C63.065 14.016 63.121 13.496 63.233 13.064C63.361 12.616 63.513 12.28 63.689 12.056C63.881 11.832 64.065 11.728 64.241 11.744C64.433 11.744 64.529 11.872 64.529 12.128C64.529 12.336 64.473 12.664 64.361 13.112C64.249 13.608 64.193 14.176 64.193 14.816C64.193 15.776 64.329 16.712 64.601 17.624C64.889 18.536 65.305 19.288 65.849 19.88C66.409 20.456 67.065 20.744 67.817 20.744C68.441 20.744 69.009 20.56 69.521 20.192C70.033 19.824 70.433 19.36 70.721 18.8C71.025 18.24 71.177 17.688 71.177 17.144V13.328C71.353 12.992 71.593 12.824 71.897 12.824C72.169 12.824 72.353 13.056 72.449 13.52C72.545 13.984 72.593 14.64 72.593 15.488C72.593 16.208 72.585 16.76 72.569 17.144C72.665 17.672 72.809 18.208 73.001 18.752C73.209 19.296 73.465 19.912 73.769 20.6C74.137 21.448 74.321 21.968 74.321 22.16C74.321 22.64 74.089 22.88 73.625 22.88ZM80.1131 23C79.9531 23.032 79.8491 23.048 79.8011 23.048C79.3051 23.048 78.9611 22.68 78.7691 21.944C78.5931 21.208 78.5051 20.176 78.5051 18.848C78.5051 18.304 78.5211 17.456 78.5531 16.304C78.5851 15.6 78.6011 15.072 78.6011 14.72C76.6331 14.72 75.6491 14.496 75.6491 14.048C75.6491 13.904 75.6651 13.792 75.6971 13.712C75.7451 13.632 75.8411 13.592 75.9851 13.592L78.6011 13.424C78.5851 12.64 78.5451 11.784 78.4811 10.856C78.4171 10.024 78.3771 9.256 78.3611 8.552C78.3611 8.376 78.4331 8.256 78.5771 8.192C78.7211 8.112 78.8731 8.072 79.0331 8.072C79.2251 8.072 79.3851 8.176 79.5131 8.384C79.6411 8.576 79.7051 8.776 79.7051 8.984L79.8731 13.376L81.8651 13.472C82.1691 13.44 82.4251 13.496 82.6331 13.64C82.8571 13.784 82.9771 14.024 82.9931 14.36C82.6571 14.504 82.2891 14.592 81.8891 14.624C81.4891 14.656 80.8171 14.672 79.8731 14.672C79.8731 16.16 79.9451 18.608 80.0891 22.016C80.0891 22.368 80.0891 22.616 80.0891 22.76C80.1051 22.888 80.1131 22.968 80.1131 23ZM86.9516 22.952C86.8716 22.968 86.7836 22.664 86.6876 22.04C86.6076 21.416 86.4956 20.344 86.3516 18.824C86.1276 16.328 85.8716 14.04 85.5836 11.96C85.3116 9.88 84.9676 8.08 84.5516 6.56C84.5196 6.432 84.5676 6.32 84.6956 6.224C84.8236 6.128 84.9996 6.08 85.2236 6.08C85.3356 6.08 85.4236 6.088 85.4876 6.104C85.8876 7.192 86.1676 8.152 86.3276 8.984C86.5036 9.816 86.6636 10.84 86.8076 12.056L86.9276 12.992C87.8876 12.416 88.7676 12.128 89.5676 12.128C91.0236 12.128 92.0556 12.792 92.6636 14.12C93.2876 15.432 93.5996 17.304 93.5996 19.736C93.5996 20.664 93.5436 21.448 93.4316 22.088C93.3196 22.712 93.1836 23.024 93.0236 23.024C92.8156 23.024 92.5836 22.872 92.3276 22.568V21.776L92.3516 19.16C92.3516 18.664 92.3356 18.048 92.3036 17.312C92.2556 16.064 91.9996 15.12 91.5356 14.48C91.0876 13.84 90.3116 13.52 89.2076 13.52C88.4716 13.52 87.7836 13.792 87.1436 14.336C87.1436 14.944 87.1676 15.568 87.2156 16.208C87.2796 16.848 87.3516 17.472 87.4316 18.08C87.5436 18.928 87.6236 19.68 87.6716 20.336C87.7356 20.976 87.7676 21.688 87.7676 22.472C87.6716 22.664 87.5596 22.792 87.4316 22.856C87.3196 22.92 87.1596 22.952 86.9516 22.952ZM103.814 23C103.158 21.72 102.638 20.216 102.254 18.488C101.886 16.76 101.702 15.264 101.702 14C101.702 13.504 101.814 13.184 102.038 13.04C102.166 12.96 102.262 12.92 102.326 12.92C102.438 12.92 102.518 13.008 102.566 13.184C102.63 13.36 102.694 13.68 102.758 14.144L102.878 15.008C103.054 14.144 103.39 13.464 103.886 12.968C104.398 12.456 105.022 12.2 105.758 12.2C106.574 12.2 107.182 12.36 107.582 12.68C107.982 12.984 108.182 13.496 108.182 14.216C107.382 13.832 106.654 13.64 105.998 13.64C105.374 13.64 104.838 13.808 104.39 14.144C103.942 14.48 103.63 14.976 103.454 15.632C103.31 16.08 103.238 16.504 103.238 16.904C103.238 17.336 103.294 17.744 103.406 18.128C103.534 18.496 103.726 18.952 103.982 19.496C104.222 20.056 104.406 20.536 104.534 20.936C104.678 21.336 104.758 21.768 104.774 22.232C104.774 22.504 104.678 22.704 104.486 22.832C104.294 22.944 104.07 23 103.814 23ZM114.796 23C113.772 23 112.828 22.8 111.964 22.4C111.1 22 110.412 21.432 109.9 20.696C109.388 19.96 109.132 19.112 109.132 18.152C109.132 17.08 109.332 16.08 109.732 15.152C110.132 14.208 110.716 13.456 111.484 12.896C112.268 12.32 113.18 12.032 114.22 12.032C115.308 12.032 116.132 12.384 116.692 13.088C117.252 13.776 117.516 14.648 117.484 15.704C117.484 16.648 117.108 17.368 116.356 17.864C115.62 18.36 114.676 18.608 113.524 18.608C113.348 18.608 113.084 18.592 112.732 18.56C112.156 18.496 111.748 18.408 111.508 18.296C111.268 18.184 111.148 17.96 111.148 17.624C111.148 17.512 111.18 17.432 111.244 17.384C111.308 17.32 111.436 17.288 111.628 17.288C111.836 17.288 112.204 17.336 112.732 17.432C113.244 17.528 113.7 17.576 114.1 17.576C115.572 17.576 116.308 16.936 116.308 15.656C116.308 14.888 116.164 14.28 115.876 13.832C115.604 13.384 115.116 13.16 114.412 13.16C113.644 13.16 112.956 13.368 112.348 13.784C111.74 14.184 111.268 14.712 110.932 15.368C110.612 16.024 110.452 16.72 110.452 17.456C110.452 18.72 110.804 19.76 111.508 20.576C112.212 21.376 113.3 21.776 114.772 21.776C114.948 21.776 115.244 21.76 115.66 21.728C115.836 21.712 116.052 21.664 116.308 21.584C116.564 21.504 116.748 21.448 116.86 21.416C117.548 21.176 118.052 21.056 118.372 21.056C118.612 21.056 118.796 21.12 118.924 21.248C118.524 21.856 117.924 22.304 117.124 22.592C116.34 22.864 115.564 23 114.796 23ZM126.466 21.872C125.794 22.32 125.026 22.544 124.162 22.544C122.738 22.544 121.666 22.048 120.946 21.056C120.242 20.048 119.89 18.816 119.89 17.36C119.89 16.288 120.106 15.272 120.538 14.312C120.986 13.336 121.61 12.552 122.41 11.96C123.226 11.352 124.17 11.048 125.242 11.048C125.69 11.048 126.162 11.144 126.658 11.336C127.17 11.528 127.594 11.816 127.93 12.2C128.266 12.584 128.434 13.032 128.434 13.544L127.738 21.632C127.738 22.72 127.826 24.096 128.002 25.76C128.162 27.552 128.242 28.904 128.242 29.816C128.242 30.024 128.122 30.152 127.882 30.2C127.642 30.264 127.322 30.296 126.922 30.296L126.466 21.872ZM124.09 21.008C125.162 21.008 125.954 20.84 126.466 20.504C126.738 18.984 126.97 16.736 127.162 13.76C127.162 13.28 126.914 12.904 126.418 12.632C125.938 12.36 125.41 12.224 124.834 12.224C123.714 12.224 122.842 12.688 122.218 13.616C121.594 14.544 121.282 15.712 121.282 17.12C121.282 18.4 121.506 19.368 121.954 20.024C122.418 20.68 123.13 21.008 124.09 21.008ZM131.41 23C131.122 23 130.866 22.872 130.642 22.616C130.434 22.344 130.266 22.032 130.138 21.68C130.026 21.312 129.97 21 129.97 20.744C129.97 20.232 130.042 19.808 130.186 19.472C130.346 19.12 130.53 18.872 130.738 18.728C130.946 18.568 131.138 18.488 131.314 18.488C131.874 18.488 132.322 18.76 132.658 19.304C132.994 19.832 133.162 20.4 133.162 21.008C133.162 21.248 133.066 21.528 132.874 21.848C132.698 22.168 132.474 22.44 132.202 22.664C131.93 22.888 131.666 23 131.41 23ZM135.469 27.536C135.277 27.536 135.149 27.456 135.085 27.296C135.037 27.152 135.013 26.952 135.013 26.696C135.013 26.168 135.133 25.424 135.373 24.464C135.389 24.368 135.453 24.064 135.565 23.552C135.677 23.04 135.733 22.56 135.733 22.112L135.709 21.224C135.517 21.224 135.389 21.192 135.325 21.128C135.277 21.048 135.253 20.928 135.253 20.768C135.253 20.4 135.309 20.112 135.421 19.904C135.549 19.696 135.773 19.592 136.093 19.592C136.493 19.592 136.757 19.776 136.885 20.144C137.029 20.512 137.101 20.976 137.101 21.536L137.077 22.328C137.077 22.664 137.005 23.264 136.861 24.128C136.717 25.008 136.525 25.792 136.285 26.48C136.045 27.184 135.773 27.536 135.469 27.536ZM155.506 11.048C155.97 11.048 156.45 11.504 156.946 12.416C157.442 13.328 157.858 14.376 158.194 15.56C158.53 16.728 158.698 17.6 158.698 18.176C158.698 19.056 158.506 19.848 158.122 20.552C157.754 21.24 157.226 21.784 156.538 22.184C155.85 22.568 155.066 22.76 154.186 22.76C152.97 22.76 151.914 22.432 151.018 21.776C150.138 21.12 149.434 20.368 148.906 19.52C148.378 18.656 147.834 17.624 147.274 16.424L146.938 15.704L146.986 21.512C146.986 21.864 146.922 22.208 146.794 22.544C146.682 22.864 146.482 23.024 146.194 23.024C145.906 23.024 145.698 22.864 145.57 22.544C145.442 22.208 145.378 21.88 145.378 21.56C145.378 20.536 145.458 19.064 145.618 17.144C145.778 15.224 145.858 13.792 145.858 12.848C145.858 12.624 145.842 12.392 145.81 12.152C145.778 11.912 145.754 11.744 145.738 11.648C145.658 11.216 145.618 10.832 145.618 10.496V10.4C145.666 10.4 145.81 10.368 146.05 10.304C146.306 10.224 146.458 10.184 146.506 10.184H146.746C147.354 12.92 148.25 15.448 149.434 17.768C150.634 20.072 152.274 21.224 154.354 21.224C155.33 21.224 156.066 20.936 156.562 20.36C157.074 19.768 157.33 18.976 157.33 17.984C157.33 17.136 157.194 16.36 156.922 15.656C156.65 14.936 156.242 14.056 155.698 13.016L155.05 11.744C155.002 11.664 154.978 11.584 154.978 11.504C154.978 11.376 155.026 11.272 155.122 11.192C155.218 11.096 155.346 11.048 155.506 11.048ZM146.986 21.512V21.464V21.512ZM166.061 23.024C165.117 23.024 164.261 22.816 163.493 22.4C162.741 21.968 162.149 21.376 161.717 20.624C161.301 19.856 161.093 18.984 161.093 18.008C161.093 16.408 161.677 15.216 162.845 14.432C164.029 13.648 165.477 13.256 167.189 13.256C167.973 13.256 168.701 13.448 169.373 13.832C170.061 14.216 170.613 14.768 171.029 15.488C171.445 16.208 171.653 17.04 171.653 17.984C171.653 19.008 171.389 19.904 170.861 20.672C170.333 21.424 169.637 22.008 168.773 22.424C167.925 22.824 167.021 23.024 166.061 23.024ZM165.797 21.656C167.285 21.656 168.413 21.32 169.181 20.648C169.949 19.976 170.333 18.992 170.333 17.696C170.333 16.816 170.029 16.056 169.421 15.416C168.829 14.776 167.997 14.456 166.925 14.456C166.205 14.456 165.477 14.592 164.741 14.864C164.005 15.136 163.397 15.544 162.917 16.088C162.437 16.632 162.197 17.288 162.197 18.056C162.197 18.696 162.357 19.296 162.677 19.856C162.997 20.4 163.429 20.84 163.973 21.176C164.533 21.496 165.141 21.656 165.797 21.656ZM185.73 23C184.066 23 182.618 22.712 181.386 22.136C180.17 21.544 179.562 20.512 179.562 19.04C179.562 18.512 179.722 18 180.042 17.504C180.362 17.008 180.834 16.608 181.458 16.304C182.082 15.984 182.842 15.824 183.738 15.824C184.426 15.824 185.01 15.856 185.49 15.92C185.97 15.984 186.522 16.16 187.146 16.448C187.77 16.736 188.418 17.192 189.09 17.816C188.834 16.712 188.45 15.744 187.938 14.912C187.426 14.08 186.85 13.44 186.21 12.992C185.586 12.528 184.97 12.296 184.362 12.296C184.074 12.296 183.802 12.352 183.546 12.464C183.306 12.56 183.01 12.704 182.658 12.896C182.258 13.152 181.962 13.28 181.77 13.28C181.69 13.28 181.618 13.256 181.554 13.208C181.506 13.144 181.482 13.072 181.482 12.992C181.482 12.352 181.762 11.856 182.322 11.504C182.898 11.152 183.594 10.992 184.41 11.024C185.53 11.088 186.554 11.568 187.482 12.464C188.41 13.344 189.138 14.44 189.666 15.752C190.21 17.064 190.482 18.352 190.482 19.616C190.482 19.824 190.466 20.12 190.434 20.504L189.666 20.456C189.058 19.224 188.274 18.352 187.314 17.84C186.37 17.312 185.418 17.048 184.458 17.048C183.226 17.048 182.346 17.232 181.818 17.6C181.29 17.968 181.026 18.504 181.026 19.208C181.026 19.944 181.394 20.536 182.13 20.984C182.866 21.432 183.81 21.656 184.962 21.656C185.602 21.656 186.114 21.624 186.498 21.56C186.882 21.48 187.282 21.376 187.698 21.248C188.034 21.136 188.33 21.056 188.586 21.008C188.842 20.96 189.17 20.936 189.57 20.936C190.018 20.936 190.298 20.968 190.41 21.032C190.538 21.096 190.602 21.24 190.602 21.464C190.602 21.624 190.274 21.824 189.618 22.064C188.962 22.304 188.226 22.52 187.41 22.712C186.594 22.904 186.034 23 185.73 23ZM196.627 22.976C195.875 22.976 195.219 22.72 194.659 22.208C194.115 21.696 193.699 21.032 193.411 20.216C193.139 19.4 193.003 18.552 193.003 17.672C193.003 16.136 193.323 14.84 193.963 13.784C194.619 12.728 195.611 12.2 196.939 12.2C197.739 12.2 198.435 12.344 199.027 12.632C199.635 12.904 200.427 13.368 201.403 14.024L202.027 14.456C201.947 13.928 201.827 13.32 201.667 12.632C201.507 11.944 201.403 11.472 201.355 11.216C201.083 9.968 200.883 9.04 200.755 8.432C200.643 7.808 200.587 7.256 200.587 6.776C200.587 5.928 200.827 5.504 201.307 5.504C201.483 5.888 201.691 6.712 201.931 7.976C202.171 9.224 202.475 10.936 202.843 13.112C203.227 15.416 203.563 17.296 203.851 18.752C204.139 20.208 204.379 21.12 204.571 21.488C204.571 21.856 204.299 22.04 203.755 22.04C203.339 22.04 203.051 21.8 202.891 21.32C202.747 20.84 202.659 20 202.627 18.8H202.435C201.763 20.016 200.891 21.016 199.819 21.8C198.747 22.584 197.683 22.976 196.627 22.976ZM196.939 21.8C197.595 21.8 198.299 21.528 199.051 20.984C199.819 20.424 200.467 19.752 200.995 18.968C201.523 18.168 201.787 17.448 201.787 16.808V16.088C200.139 14.36 198.619 13.496 197.227 13.496C196.251 13.496 195.499 13.856 194.971 14.576C194.443 15.28 194.179 16.208 194.179 17.36L194.203 17.864C194.299 19.08 194.571 20.04 195.019 20.744C195.467 21.448 196.107 21.8 196.939 21.8ZM206.119 20.168C206.343 19.992 206.559 19.904 206.767 19.904C206.959 19.904 207.143 19.96 207.319 20.072C207.511 20.184 207.703 20.328 207.895 20.504C208.087 20.664 208.239 20.784 208.351 20.864C208.719 21.152 209.223 21.376 209.863 21.536C210.503 21.696 211.183 21.776 211.903 21.776C212.719 21.776 213.447 21.624 214.087 21.32C214.743 21 215.071 20.576 215.071 20.048C215.071 19.568 214.895 19.192 214.543 18.92C214.191 18.632 213.767 18.424 213.271 18.296C212.775 18.168 212.119 18.048 211.303 17.936C210.199 17.808 209.319 17.648 208.663 17.456C208.023 17.264 207.511 16.952 207.127 16.52C206.743 16.072 206.551 15.448 206.551 14.648C206.551 13.784 206.959 13.144 207.775 12.728C208.591 12.296 209.527 12.08 210.583 12.08C211.543 12.08 212.359 12.288 213.031 12.704C213.719 13.104 214.071 13.68 214.087 14.432C214.119 14.864 214.055 15.208 213.895 15.464C213.735 15.704 213.543 15.824 213.319 15.824C213.191 15.824 213.079 15.776 212.983 15.68C212.903 15.584 212.863 15.456 212.863 15.296C212.863 15.04 212.951 14.76 213.127 14.456C213.047 14.072 212.783 13.784 212.335 13.592C211.903 13.4 211.383 13.304 210.775 13.304C209.879 13.304 209.167 13.472 208.639 13.808C208.111 14.128 207.847 14.512 207.847 14.96C207.847 15.44 208.039 15.808 208.423 16.064C208.807 16.32 209.271 16.504 209.815 16.616C210.375 16.712 211.167 16.808 212.191 16.904C213.039 17.016 213.727 17.152 214.255 17.312C214.799 17.472 215.255 17.784 215.623 18.248C215.991 18.696 216.175 19.344 216.175 20.192C216.175 21.072 215.767 21.768 214.951 22.28C214.135 22.776 213.159 23.024 212.023 23.024C210.567 23.024 209.263 22.776 208.111 22.28C206.975 21.784 206.311 21.08 206.119 20.168ZM233.762 13.976C233.762 14.184 233.594 14.328 233.258 14.408C232.938 14.488 232.418 14.536 231.698 14.552C231.538 15.384 231.346 16.128 231.122 16.784C230.914 17.424 230.602 18.12 230.186 18.872L232.49 22.4C232.394 22.56 232.202 22.64 231.914 22.64L231.53 22.616C230.794 21.704 230.13 20.832 229.538 20C228.866 21.088 228.266 21.872 227.738 22.352C227.21 22.816 226.57 23.048 225.818 23.048C225.178 23.048 224.626 22.84 224.162 22.424C223.714 22.008 223.49 21.448 223.49 20.744C223.49 20.024 223.642 19.328 223.946 18.656C224.25 17.968 224.698 17.128 225.29 16.136C225.69 15.448 225.986 14.912 226.178 14.528C226.386 14.128 226.546 13.736 226.658 13.352C226.674 12.2 226.714 11.032 226.778 9.848C226.826 8.888 226.85 8.096 226.85 7.472C226.85 6.72 227.17 6.344 227.81 6.344C228.354 6.344 228.786 6.592 229.106 7.088C229.426 7.568 229.586 8.176 229.586 8.912C229.586 9.632 229.434 10.416 229.13 11.264C228.842 12.096 228.386 13.072 227.762 14.192C227.858 14.656 228.05 15.184 228.338 15.776C228.642 16.352 229.042 17.048 229.538 17.864C230.402 16.12 230.794 14.68 230.714 13.544C230.714 13.368 230.986 13.28 231.53 13.28L232.706 13.304C233.122 13.304 233.402 13.344 233.546 13.424C233.69 13.488 233.762 13.672 233.762 13.976ZM225.986 21.848C226.514 21.848 227.002 21.64 227.45 21.224C227.914 20.792 228.402 20.088 228.914 19.112C228.178 18.008 227.49 16.912 226.85 15.824C226.066 17.168 225.53 18.16 225.242 18.8C224.954 19.44 224.81 20.088 224.81 20.744C224.81 21.112 224.914 21.392 225.122 21.584C225.33 21.76 225.618 21.848 225.986 21.848ZM251.787 11.048C252.251 11.048 252.731 11.504 253.227 12.416C253.723 13.328 254.139 14.376 254.475 15.56C254.811 16.728 254.979 17.6 254.979 18.176C254.979 19.056 254.787 19.848 254.403 20.552C254.035 21.24 253.507 21.784 252.819 22.184C252.131 22.568 251.347 22.76 250.467 22.76C249.251 22.76 248.195 22.432 247.299 21.776C246.419 21.12 245.715 20.368 245.187 19.52C244.659 18.656 244.115 17.624 243.555 16.424L243.219 15.704L243.267 21.512C243.267 21.864 243.203 22.208 243.075 22.544C242.963 22.864 242.763 23.024 242.475 23.024C242.187 23.024 241.979 22.864 241.851 22.544C241.723 22.208 241.659 21.88 241.659 21.56C241.659 20.536 241.739 19.064 241.899 17.144C242.059 15.224 242.139 13.792 242.139 12.848C242.139 12.624 242.123 12.392 242.091 12.152C242.059 11.912 242.035 11.744 242.019 11.648C241.939 11.216 241.899 10.832 241.899 10.496V10.4C241.947 10.4 242.091 10.368 242.331 10.304C242.587 10.224 242.739 10.184 242.787 10.184H243.027C243.635 12.92 244.531 15.448 245.715 17.768C246.915 20.072 248.555 21.224 250.635 21.224C251.611 21.224 252.347 20.936 252.843 20.36C253.355 19.768 253.611 18.976 253.611 17.984C253.611 17.136 253.475 16.36 253.203 15.656C252.931 14.936 252.523 14.056 251.979 13.016L251.331 11.744C251.283 11.664 251.259 11.584 251.259 11.504C251.259 11.376 251.307 11.272 251.403 11.192C251.499 11.096 251.627 11.048 251.787 11.048ZM243.267 21.512V21.464V21.512ZM262.342 23.024C261.398 23.024 260.542 22.816 259.774 22.4C259.022 21.968 258.43 21.376 257.998 20.624C257.582 19.856 257.374 18.984 257.374 18.008C257.374 16.408 257.958 15.216 259.126 14.432C260.31 13.648 261.758 13.256 263.47 13.256C264.254 13.256 264.982 13.448 265.654 13.832C266.342 14.216 266.894 14.768 267.31 15.488C267.726 16.208 267.934 17.04 267.934 17.984C267.934 19.008 267.67 19.904 267.142 20.672C266.614 21.424 265.918 22.008 265.054 22.424C264.206 22.824 263.302 23.024 262.342 23.024ZM262.078 21.656C263.566 21.656 264.694 21.32 265.462 20.648C266.23 19.976 266.614 18.992 266.614 17.696C266.614 16.816 266.31 16.056 265.702 15.416C265.11 14.776 264.278 14.456 263.206 14.456C262.486 14.456 261.758 14.592 261.022 14.864C260.286 15.136 259.678 15.544 259.198 16.088C258.718 16.632 258.478 17.288 258.478 18.056C258.478 18.696 258.638 19.296 258.958 19.856C259.278 20.4 259.71 20.84 260.254 21.176C260.814 21.496 261.422 21.656 262.078 21.656ZM282.011 23C280.347 23 278.899 22.712 277.667 22.136C276.451 21.544 275.843 20.512 275.843 19.04C275.843 18.512 276.003 18 276.323 17.504C276.643 17.008 277.115 16.608 277.739 16.304C278.363 15.984 279.123 15.824 280.019 15.824C280.707 15.824 281.291 15.856 281.771 15.92C282.251 15.984 282.803 16.16 283.427 16.448C284.051 16.736 284.699 17.192 285.371 17.816C285.115 16.712 284.731 15.744 284.219 14.912C283.707 14.08 283.131 13.44 282.491 12.992C281.867 12.528 281.251 12.296 280.643 12.296C280.355 12.296 280.083 12.352 279.827 12.464C279.587 12.56 279.291 12.704 278.939 12.896C278.539 13.152 278.243 13.28 278.051 13.28C277.971 13.28 277.899 13.256 277.835 13.208C277.787 13.144 277.763 13.072 277.763 12.992C277.763 12.352 278.043 11.856 278.603 11.504C279.179 11.152 279.875 10.992 280.691 11.024C281.811 11.088 282.835 11.568 283.763 12.464C284.691 13.344 285.419 14.44 285.947 15.752C286.491 17.064 286.763 18.352 286.763 19.616C286.763 19.824 286.747 20.12 286.715 20.504L285.947 20.456C285.339 19.224 284.555 18.352 283.595 17.84C282.651 17.312 281.699 17.048 280.739 17.048C279.507 17.048 278.627 17.232 278.099 17.6C277.571 17.968 277.307 18.504 277.307 19.208C277.307 19.944 277.675 20.536 278.411 20.984C279.147 21.432 280.091 21.656 281.243 21.656C281.883 21.656 282.395 21.624 282.779 21.56C283.163 21.48 283.563 21.376 283.979 21.248C284.315 21.136 284.611 21.056 284.867 21.008C285.123 20.96 285.451 20.936 285.851 20.936C286.299 20.936 286.579 20.968 286.691 21.032C286.819 21.096 286.883 21.24 286.883 21.464C286.883 21.624 286.555 21.824 285.899 22.064C285.243 22.304 284.507 22.52 283.691 22.712C282.875 22.904 282.315 23 282.011 23ZM291.084 23.096C290.86 23.16 290.732 23.192 290.7 23.192C290.572 23.192 290.436 23.128 290.292 23C289.764 22.216 289.38 20.848 289.14 18.896C288.916 16.944 288.804 15.264 288.804 13.856C288.804 13.632 288.964 13.52 289.284 13.52C289.764 13.52 290.004 13.784 290.004 14.312C290.004 14.456 289.996 14.576 289.98 14.672C290.124 14.336 290.396 13.992 290.796 13.64C291.196 13.288 291.66 12.992 292.188 12.752C292.716 12.512 293.252 12.392 293.796 12.392C295.508 12.392 296.756 13.152 297.54 14.672C298.324 16.176 298.716 18.048 298.716 20.288C298.716 21.056 298.636 21.672 298.476 22.136C298.316 22.584 298.1 22.808 297.828 22.808C297.54 22.808 297.396 22.72 297.396 22.544C297.508 21.696 297.564 20.864 297.564 20.048C297.564 17.984 297.204 16.424 296.484 15.368C295.764 14.296 294.812 13.76 293.628 13.76C293.052 13.76 292.492 13.904 291.948 14.192C291.42 14.48 290.988 14.88 290.652 15.392C290.332 15.904 290.172 16.488 290.172 17.144C290.172 17.88 290.212 18.52 290.292 19.064C290.372 19.608 290.5 20.264 290.676 21.032C290.868 21.784 291.004 22.472 291.084 23.096ZM306.808 23C305.144 23 303.696 22.712 302.464 22.136C301.248 21.544 300.64 20.512 300.64 19.04C300.64 18.512 300.8 18 301.12 17.504C301.44 17.008 301.912 16.608 302.536 16.304C303.16 15.984 303.92 15.824 304.816 15.824C305.504 15.824 306.088 15.856 306.568 15.92C307.048 15.984 307.6 16.16 308.224 16.448C308.848 16.736 309.496 17.192 310.168 17.816C309.912 16.712 309.528 15.744 309.016 14.912C308.504 14.08 307.928 13.44 307.288 12.992C306.664 12.528 306.048 12.296 305.44 12.296C305.152 12.296 304.88 12.352 304.624 12.464C304.384 12.56 304.088 12.704 303.736 12.896C303.336 13.152 303.04 13.28 302.848 13.28C302.768 13.28 302.696 13.256 302.632 13.208C302.584 13.144 302.56 13.072 302.56 12.992C302.56 12.352 302.84 11.856 303.4 11.504C303.976 11.152 304.672 10.992 305.488 11.024C306.608 11.088 307.632 11.568 308.56 12.464C309.488 13.344 310.216 14.44 310.744 15.752C311.288 17.064 311.56 18.352 311.56 19.616C311.56 19.824 311.544 20.12 311.512 20.504L310.744 20.456C310.136 19.224 309.352 18.352 308.392 17.84C307.448 17.312 306.496 17.048 305.536 17.048C304.304 17.048 303.424 17.232 302.896 17.6C302.368 17.968 302.104 18.504 302.104 19.208C302.104 19.944 302.472 20.536 303.208 20.984C303.944 21.432 304.888 21.656 306.04 21.656C306.68 21.656 307.192 21.624 307.576 21.56C307.96 21.48 308.36 21.376 308.776 21.248C309.112 21.136 309.408 21.056 309.664 21.008C309.92 20.96 310.248 20.936 310.648 20.936C311.096 20.936 311.376 20.968 311.488 21.032C311.616 21.096 311.68 21.24 311.68 21.464C311.68 21.624 311.352 21.824 310.696 22.064C310.04 22.304 309.304 22.52 308.488 22.712C307.672 22.904 307.112 23 306.808 23ZM314.921 22.832C314.569 21.088 314.297 19.024 314.105 16.64C313.929 14.24 313.841 11.92 313.841 9.68C313.841 8.56 313.865 7.568 313.913 6.704C313.913 6.496 314.073 6.392 314.393 6.392C314.649 6.392 314.809 6.456 314.873 6.584C314.953 6.712 314.993 6.912 314.993 7.184C314.993 9.776 315.041 11.992 315.137 13.832C315.233 15.656 315.361 17.624 315.521 19.736C315.617 21.096 315.681 22.016 315.713 22.496C315.729 22.752 315.593 22.88 315.305 22.88C315.209 22.88 315.081 22.864 314.921 22.832ZM324.208 34.352C323.12 34.352 322.144 34.12 321.28 33.656C320.432 33.192 319.752 32.656 319.24 32.048C318.728 31.44 318.44 30.944 318.376 30.56C318.312 30.208 318.392 29.936 318.616 29.744C318.856 29.552 319.152 29.472 319.504 29.504C320 30.688 320.592 31.6 321.28 32.24C321.968 32.88 322.952 33.216 324.232 33.248C325.128 33.264 325.84 32.688 326.368 31.52C326.912 30.368 327.296 28.952 327.52 27.272C327.744 25.608 327.856 23.968 327.856 22.352C327.856 21.52 327.832 20.84 327.784 20.312C326.568 21.8 325.016 22.544 323.128 22.544C321.496 22.544 320.24 21.768 319.36 20.216C318.496 18.664 317.936 16.912 317.68 14.96C317.648 14.768 317.632 14.496 317.632 14.144C317.632 13.136 317.96 12.632 318.616 12.632C318.68 12.632 318.768 13.032 318.88 13.832C319.056 15.096 319.272 16.232 319.528 17.24C319.784 18.248 320.208 19.168 320.8 20C321.408 20.816 322.208 21.224 323.2 21.224C323.984 21.224 324.784 20.968 325.6 20.456C326.432 19.928 327.032 19.344 327.4 18.704C327.4 17.488 327.24 16.4 326.92 15.44C326.616 14.464 326.456 13.944 326.44 13.88C326.408 13.528 326.392 13.304 326.392 13.208C326.392 12.888 326.44 12.656 326.536 12.512C326.648 12.368 326.808 12.296 327.016 12.296C327.24 12.296 327.496 12.752 327.784 13.664C328.072 14.576 328.328 15.768 328.552 17.24C328.776 18.712 328.928 20.248 329.008 21.848C329.04 22.68 329.056 23.296 329.056 23.696C329.056 26.768 328.672 29.312 327.904 31.328C327.152 33.344 325.92 34.352 324.208 34.352ZM334.832 23C334.672 23.032 334.568 23.048 334.52 23.048C334.024 23.048 333.68 22.68 333.488 21.944C333.312 21.208 333.224 20.176 333.224 18.848C333.224 18.304 333.24 17.456 333.272 16.304C333.304 15.6 333.32 15.072 333.32 14.72C331.352 14.72 330.368 14.496 330.368 14.048C330.368 13.904 330.384 13.792 330.416 13.712C330.464 13.632 330.56 13.592 330.704 13.592L333.32 13.424C333.304 12.64 333.264 11.784 333.2 10.856C333.136 10.024 333.096 9.256 333.08 8.552C333.08 8.376 333.152 8.256 333.296 8.192C333.44 8.112 333.592 8.072 333.752 8.072C333.944 8.072 334.104 8.176 334.232 8.384C334.36 8.576 334.424 8.776 334.424 8.984L334.592 13.376L336.584 13.472C336.888 13.44 337.144 13.496 337.352 13.64C337.576 13.784 337.696 14.024 337.712 14.36C337.376 14.504 337.008 14.592 336.608 14.624C336.208 14.656 335.536 14.672 334.592 14.672C334.592 16.16 334.664 18.608 334.808 22.016C334.808 22.368 334.808 22.616 334.808 22.76C334.824 22.888 334.832 22.968 334.832 23ZM340.638 23.024C340.27 23.024 339.974 22.488 339.75 21.416C339.526 20.328 339.382 19.392 339.318 18.608C339.254 17.824 339.166 16.584 339.054 14.888C339.038 14.616 339.03 14.264 339.03 13.832C339.03 13.288 339.07 12.912 339.15 12.704C339.246 12.496 339.398 12.392 339.606 12.392C339.782 12.392 339.918 12.432 340.014 12.512C340.126 12.576 340.222 12.688 340.302 12.848L340.278 13.808C340.278 14.832 340.326 15.8 340.422 16.712C340.534 17.624 340.702 18.848 340.926 20.384C341.054 21.056 341.142 21.608 341.19 22.04C341.222 22.264 341.182 22.488 341.07 22.712C340.958 22.92 340.814 23.024 340.638 23.024ZM340.038 9.824C339.686 9.824 339.422 9.688 339.246 9.416C339.086 9.144 339.006 8.808 339.006 8.408C339.006 8.232 339.014 8.104 339.03 8.024C339.014 7.768 339.158 7.64 339.462 7.64C339.686 7.64 339.91 7.696 340.134 7.808C340.374 7.904 340.446 7.976 340.35 8.024C340.51 8.44 340.59 8.768 340.59 9.008C340.59 9.216 340.542 9.384 340.446 9.512C340.35 9.624 340.214 9.728 340.038 9.824ZM349.247 23.024C347.375 23.024 345.919 22.6 344.879 21.752C343.855 20.888 343.343 19.56 343.343 17.768C343.343 16.856 343.567 15.992 344.015 15.176C344.479 14.344 345.095 13.68 345.863 13.184C346.647 12.672 347.487 12.416 348.383 12.416C349.295 12.416 350.071 12.616 350.711 13.016C351.351 13.4 351.671 13.96 351.671 14.696C351.671 15.208 351.575 15.576 351.383 15.8C351.207 16.008 351.007 16.112 350.783 16.112C350.783 15.344 350.575 14.72 350.159 14.24C349.743 13.76 349.151 13.52 348.383 13.52C347.615 13.52 346.951 13.728 346.391 14.144C345.831 14.544 345.399 15.08 345.095 15.752C344.807 16.408 344.663 17.096 344.663 17.816C344.663 19.336 345.175 20.368 346.199 20.912C347.239 21.456 348.607 21.728 350.303 21.728C350.879 21.728 351.631 21.696 352.559 21.632C352.591 21.632 352.663 21.664 352.775 21.728C352.887 21.792 352.975 21.832 353.039 21.848V21.992C353.039 22.456 352.631 22.744 351.815 22.856C350.999 22.968 350.143 23.024 349.247 23.024ZM354.127 20.168C354.351 19.992 354.567 19.904 354.775 19.904C354.967 19.904 355.151 19.96 355.327 20.072C355.519 20.184 355.711 20.328 355.903 20.504C356.095 20.664 356.247 20.784 356.359 20.864C356.727 21.152 357.231 21.376 357.871 21.536C358.511 21.696 359.191 21.776 359.911 21.776C360.727 21.776 361.455 21.624 362.095 21.32C362.751 21 363.079 20.576 363.079 20.048C363.079 19.568 362.903 19.192 362.551 18.92C362.199 18.632 361.775 18.424 361.279 18.296C360.783 18.168 360.127 18.048 359.311 17.936C358.207 17.808 357.327 17.648 356.671 17.456C356.031 17.264 355.519 16.952 355.135 16.52C354.751 16.072 354.559 15.448 354.559 14.648C354.559 13.784 354.967 13.144 355.783 12.728C356.599 12.296 357.535 12.08 358.591 12.08C359.551 12.08 360.367 12.288 361.039 12.704C361.727 13.104 362.079 13.68 362.095 14.432C362.127 14.864 362.063 15.208 361.903 15.464C361.743 15.704 361.551 15.824 361.327 15.824C361.199 15.824 361.087 15.776 360.991 15.68C360.911 15.584 360.871 15.456 360.871 15.296C360.871 15.04 360.959 14.76 361.135 14.456C361.055 14.072 360.791 13.784 360.343 13.592C359.911 13.4 359.391 13.304 358.783 13.304C357.887 13.304 357.175 13.472 356.647 13.808C356.119 14.128 355.855 14.512 355.855 14.96C355.855 15.44 356.047 15.808 356.431 16.064C356.815 16.32 357.279 16.504 357.823 16.616C358.383 16.712 359.175 16.808 360.199 16.904C361.047 17.016 361.735 17.152 362.263 17.312C362.807 17.472 363.263 17.784 363.631 18.248C363.999 18.696 364.183 19.344 364.183 20.192C364.183 21.072 363.775 21.768 362.959 22.28C362.143 22.776 361.167 23.024 360.031 23.024C358.575 23.024 357.271 22.776 356.119 22.28C354.983 21.784 354.319 21.08 354.127 20.168Z" fill="#757070"/>
<path d="M131.974 62.2984C123.16 65.385 114.715 68.3875 106.265 71.3509C104.582 71.9506 103.395 72.3716 101.166 72.7204C99.5136 72.9996 95.9962 73.5043 96.0511 71.3982C96.2549 69.6702 96.5927 68.4805 99.4203 67.1085C106.739 63.6086 114.489 61.4033 122.167 59.1671C128.948 57.1979 134.149 55.816 140.25 54.4837C143.099 53.8616 144.451 55.3619 144.48 58.4482C144.505 61.218 144.574 64.0618 144.145 66.7679C142.643 76.536 140.923 86.2116 139.28 95.9571C139.083 97.1693 138.993 98.131 138.577 99.5281C138.059 101.215 137.764 102.479 136.249 102.187C134.807 101.925 134.591 99.5746 134.687 98.3747C135.294 88.3187 136.849 67.611 136.712 66.4788C132.666 70.2957 128.849 73.7285 125.201 77.4182C99.9055 103.256 76.493 131.006 59.3086 165.013C45.7053 191.932 35.1726 220.341 28.5275 250.736C28.1249 252.528 27.582 254.297 27.0296 255.988C26.3106 258.293 25.5762 259.333 24.4974 258.948C22.5489 257.916 22.6849 256.197 22.6892 254.81C22.6637 252.04 23.1517 249.248 23.6152 246.537C30.1472 210.373 43.5451 177.774 60.8013 147.204C78.5104 115.827 101.736 90.517 126.989 67.457C128.363 66.3004 131.516 63.0668 131.974 62.2984Z" fill="#DBDBDB"/>
</svg>
