<svg width="295" height="225" viewBox="0 0 295 225" fill="none" xmlns="http://www.w3.org/2000/svg">
<path d="M162.341 50.7757C170.277 54.8968 177.876 58.8803 185.485 62.8346C186.998 63.6294 188.067 64.1886 190.126 64.8978C191.65 65.4394 194.904 66.5232 195.106 64.8878C195.121 63.5146 194.946 62.5302 192.446 60.9136C185.968 56.7688 178.928 53.5374 171.96 50.2965C165.805 47.4387 161.07 45.3459 155.479 43.1135C152.868 42.0711 151.414 42.9615 151.016 45.3364C150.659 47.468 150.252 49.648 150.332 51.8202C150.574 59.6517 151.032 67.4548 151.409 75.2965C151.449 76.2706 151.419 77.0302 151.643 78.19C151.929 79.5936 152.054 80.6265 153.517 80.7003C154.908 80.7836 155.394 79.0129 155.448 78.0683C156.084 70.1916 157.107 53.9111 157.373 53.0648C160.727 56.8079 163.912 60.2095 166.907 63.776C187.644 88.7013 206.377 114.729 218.487 144.355C228.074 167.805 234.588 191.799 237.198 216.557C237.362 218.019 237.662 219.49 237.979 220.904C238.38 222.824 238.947 223.771 240.01 223.687C241.971 223.276 242.049 221.923 242.212 220.852C242.569 218.72 242.444 216.47 242.333 214.288C240.522 185.102 231.812 157.311 219.221 130.323C206.3 102.623 187.45 78.513 166.419 55.739C165.263 54.5756 162.68 51.4587 162.341 50.7757Z" fill="#DBDBDB"/>
<path d="M4.368 22.04C4.064 20.824 3.832 19.6 3.672 18.368C3.512 17.12 3.368 15.072 3.24 12.224C3.24 12.032 3.304 11.864 3.432 11.72C3.576 11.576 3.736 11.504 3.912 11.504H4.128C4.208 12.032 4.264 12.88 4.296 14.048C4.296 14.176 4.312 14.608 4.344 15.344C4.376 16.064 4.456 16.744 4.584 17.384C6.44 17.208 7.92 16.848 9.024 16.304C10.144 15.76 10.704 14.984 10.704 13.976C10.704 12.712 10.144 11.68 9.024 10.88C7.904 10.08 6.216 9.68 3.96 9.68C3.016 9.68 2.216 9.856 1.56 10.208C1.448 10.256 1.368 10.36 1.32 10.52C1.272 10.664 1.232 10.872 1.2 11.144C1.168 11.432 1.128 11.648 1.08 11.792C1.032 11.936 0.944 12.008 0.816 12.008C0.672 12.008 0.576 11.904 0.528 11.696C0.496 11.472 0.48 10.968 0.48 10.184C0.48 9.736 0.784 9.384 1.392 9.128C2 8.872 2.784 8.744 3.744 8.744C6.544 8.744 8.624 9.184 9.984 10.064C11.344 10.944 12.024 12.296 12.024 14.12C12.024 15.096 11.632 15.912 10.848 16.568C10.064 17.224 9.112 17.712 7.992 18.032C6.872 18.336 5.8 18.488 4.776 18.488C4.808 18.68 4.84 18.856 4.872 19.016C4.904 19.176 4.928 19.312 4.944 19.424C5.168 20.512 5.28 21.352 5.28 21.944C5.28 22.296 5.232 22.576 5.136 22.784C5.056 22.992 4.872 23.064 4.584 23L4.368 22.04ZM19.0693 23C18.0453 23 17.1013 22.8 16.2373 22.4C15.3733 22 14.6853 21.432 14.1733 20.696C13.6613 19.96 13.4053 19.112 13.4053 18.152C13.4053 17.08 13.6053 16.08 14.0053 15.152C14.4053 14.208 14.9893 13.456 15.7573 12.896C16.5413 12.32 17.4533 12.032 18.4933 12.032C19.5813 12.032 20.4053 12.384 20.9653 13.088C21.5253 13.776 21.7893 14.648 21.7573 15.704C21.7573 16.648 21.3813 17.368 20.6293 17.864C19.8933 18.36 18.9493 18.608 17.7973 18.608C17.6213 18.608 17.3573 18.592 17.0053 18.56C16.4293 18.496 16.0213 18.408 15.7813 18.296C15.5413 18.184 15.4213 17.96 15.4213 17.624C15.4213 17.512 15.4533 17.432 15.5173 17.384C15.5813 17.32 15.7093 17.288 15.9013 17.288C16.1093 17.288 16.4773 17.336 17.0053 17.432C17.5173 17.528 17.9733 17.576 18.3733 17.576C19.8453 17.576 20.5813 16.936 20.5813 15.656C20.5813 14.888 20.4373 14.28 20.1493 13.832C19.8773 13.384 19.3893 13.16 18.6853 13.16C17.9173 13.16 17.2293 13.368 16.6213 13.784C16.0133 14.184 15.5413 14.712 15.2053 15.368C14.8853 16.024 14.7253 16.72 14.7253 17.456C14.7253 18.72 15.0773 19.76 15.7813 20.576C16.4853 21.376 17.5733 21.776 19.0453 21.776C19.2213 21.776 19.5173 21.76 19.9333 21.728C20.1093 21.712 20.3253 21.664 20.5813 21.584C20.8373 21.504 21.0213 21.448 21.1333 21.416C21.8213 21.176 22.3253 21.056 22.6453 21.056C22.8853 21.056 23.0693 21.12 23.1973 21.248C22.7973 21.856 22.1973 22.304 21.3973 22.592C20.6133 22.864 19.8373 23 19.0693 23ZM26.2751 23C25.6191 21.72 25.0991 20.216 24.7151 18.488C24.3471 16.76 24.1631 15.264 24.1631 14C24.1631 13.504 24.2751 13.184 24.4991 13.04C24.6271 12.96 24.7231 12.92 24.7871 12.92C24.8991 12.92 24.9791 13.008 25.0271 13.184C25.0911 13.36 25.1551 13.68 25.2191 14.144L25.3391 15.008C25.5151 14.144 25.8511 13.464 26.3471 12.968C26.8591 12.456 27.4831 12.2 28.2191 12.2C29.0351 12.2 29.6431 12.36 30.0431 12.68C30.4431 12.984 30.6431 13.496 30.6431 14.216C29.8431 13.832 29.1151 13.64 28.4591 13.64C27.8351 13.64 27.2991 13.808 26.8511 14.144C26.4031 14.48 26.0911 14.976 25.9151 15.632C25.7711 16.08 25.6991 16.504 25.6991 16.904C25.6991 17.336 25.7551 17.744 25.8671 18.128C25.9951 18.496 26.1871 18.952 26.4431 19.496C26.6831 20.056 26.8671 20.536 26.9951 20.936C27.1391 21.336 27.2191 21.768 27.2351 22.232C27.2351 22.504 27.1391 22.704 26.9471 22.832C26.7551 22.944 26.5311 23 26.2751 23ZM31.7128 20.168C31.9368 19.992 32.1528 19.904 32.3608 19.904C32.5528 19.904 32.7368 19.96 32.9128 20.072C33.1048 20.184 33.2968 20.328 33.4888 20.504C33.6808 20.664 33.8328 20.784 33.9448 20.864C34.3128 21.152 34.8168 21.376 35.4568 21.536C36.0968 21.696 36.7768 21.776 37.4968 21.776C38.3128 21.776 39.0408 21.624 39.6808 21.32C40.3368 21 40.6648 20.576 40.6648 20.048C40.6648 19.568 40.4888 19.192 40.1368 18.92C39.7848 18.632 39.3608 18.424 38.8648 18.296C38.3688 18.168 37.7128 18.048 36.8968 17.936C35.7928 17.808 34.9128 17.648 34.2568 17.456C33.6168 17.264 33.1048 16.952 32.7208 16.52C32.3368 16.072 32.1448 15.448 32.1448 14.648C32.1448 13.784 32.5528 13.144 33.3688 12.728C34.1848 12.296 35.1208 12.08 36.1768 12.08C37.1368 12.08 37.9528 12.288 38.6248 12.704C39.3128 13.104 39.6648 13.68 39.6808 14.432C39.7128 14.864 39.6488 15.208 39.4888 15.464C39.3288 15.704 39.1368 15.824 38.9128 15.824C38.7848 15.824 38.6728 15.776 38.5768 15.68C38.4968 15.584 38.4568 15.456 38.4568 15.296C38.4568 15.04 38.5448 14.76 38.7208 14.456C38.6408 14.072 38.3768 13.784 37.9288 13.592C37.4968 13.4 36.9768 13.304 36.3688 13.304C35.4728 13.304 34.7608 13.472 34.2328 13.808C33.7048 14.128 33.4408 14.512 33.4408 14.96C33.4408 15.44 33.6328 15.808 34.0168 16.064C34.4008 16.32 34.8648 16.504 35.4088 16.616C35.9688 16.712 36.7608 16.808 37.7848 16.904C38.6328 17.016 39.3208 17.152 39.8488 17.312C40.3928 17.472 40.8488 17.784 41.2168 18.248C41.5848 18.696 41.7688 19.344 41.7688 20.192C41.7688 21.072 41.3608 21.768 40.5448 22.28C39.7288 22.776 38.7528 23.024 37.6168 23.024C36.1608 23.024 34.8568 22.776 33.7048 22.28C32.5688 21.784 31.9048 21.08 31.7128 20.168ZM48.7718 23.024C47.8278 23.024 46.9718 22.816 46.2038 22.4C45.4518 21.968 44.8598 21.376 44.4277 20.624C44.0118 19.856 43.8038 18.984 43.8038 18.008C43.8038 16.408 44.3878 15.216 45.5558 14.432C46.7398 13.648 48.1878 13.256 49.8997 13.256C50.6838 13.256 51.4118 13.448 52.0838 13.832C52.7718 14.216 53.3238 14.768 53.7398 15.488C54.1558 16.208 54.3638 17.04 54.3638 17.984C54.3638 19.008 54.0998 19.904 53.5718 20.672C53.0438 21.424 52.3478 22.008 51.4838 22.424C50.6358 22.824 49.7318 23.024 48.7718 23.024ZM48.5078 21.656C49.9958 21.656 51.1238 21.32 51.8918 20.648C52.6598 19.976 53.0438 18.992 53.0438 17.696C53.0438 16.816 52.7398 16.056 52.1318 15.416C51.5398 14.776 50.7078 14.456 49.6358 14.456C48.9158 14.456 48.1878 14.592 47.4518 14.864C46.7158 15.136 46.1078 15.544 45.6278 16.088C45.1478 16.632 44.9078 17.288 44.9078 18.056C44.9078 18.696 45.0678 19.296 45.3878 19.856C45.7078 20.4 46.1398 20.84 46.6838 21.176C47.2438 21.496 47.8518 21.656 48.5078 21.656ZM58.5525 23.096C58.3285 23.16 58.2005 23.192 58.1685 23.192C58.0405 23.192 57.9045 23.128 57.7605 23C57.2325 22.216 56.8485 20.848 56.6085 18.896C56.3845 16.944 56.2725 15.264 56.2725 13.856C56.2725 13.632 56.4325 13.52 56.7525 13.52C57.2325 13.52 57.4725 13.784 57.4725 14.312C57.4725 14.456 57.4645 14.576 57.4485 14.672C57.5925 14.336 57.8645 13.992 58.2645 13.64C58.6645 13.288 59.1285 12.992 59.6565 12.752C60.1845 12.512 60.7205 12.392 61.2645 12.392C62.9765 12.392 64.2245 13.152 65.0085 14.672C65.7925 16.176 66.1845 18.048 66.1845 20.288C66.1845 21.056 66.1045 21.672 65.9445 22.136C65.7845 22.584 65.5685 22.808 65.2965 22.808C65.0085 22.808 64.8645 22.72 64.8645 22.544C64.9765 21.696 65.0325 20.864 65.0325 20.048C65.0325 17.984 64.6725 16.424 63.9525 15.368C63.2325 14.296 62.2805 13.76 61.0965 13.76C60.5205 13.76 59.9605 13.904 59.4165 14.192C58.8885 14.48 58.4565 14.88 58.1205 15.392C57.8005 15.904 57.6405 16.488 57.6405 17.144C57.6405 17.88 57.6805 18.52 57.7605 19.064C57.8405 19.608 57.9685 20.264 58.1445 21.032C58.3365 21.784 58.4725 22.472 58.5525 23.096ZM74.2764 23C72.6124 23 71.1644 22.712 69.9324 22.136C68.7164 21.544 68.1084 20.512 68.1084 19.04C68.1084 18.512 68.2684 18 68.5884 17.504C68.9084 17.008 69.3804 16.608 70.0044 16.304C70.6284 15.984 71.3884 15.824 72.2844 15.824C72.9724 15.824 73.5564 15.856 74.0364 15.92C74.5164 15.984 75.0684 16.16 75.6924 16.448C76.3164 16.736 76.9644 17.192 77.6364 17.816C77.3804 16.712 76.9964 15.744 76.4844 14.912C75.9724 14.08 75.3964 13.44 74.7564 12.992C74.1324 12.528 73.5164 12.296 72.9084 12.296C72.6204 12.296 72.3484 12.352 72.0924 12.464C71.8524 12.56 71.5564 12.704 71.2044 12.896C70.8044 13.152 70.5084 13.28 70.3164 13.28C70.2364 13.28 70.1644 13.256 70.1004 13.208C70.0524 13.144 70.0284 13.072 70.0284 12.992C70.0284 12.352 70.3084 11.856 70.8684 11.504C71.4444 11.152 72.1404 10.992 72.9564 11.024C74.0764 11.088 75.1004 11.568 76.0284 12.464C76.9564 13.344 77.6844 14.44 78.2124 15.752C78.7564 17.064 79.0284 18.352 79.0284 19.616C79.0284 19.824 79.0124 20.12 78.9804 20.504L78.2124 20.456C77.6044 19.224 76.8204 18.352 75.8604 17.84C74.9164 17.312 73.9644 17.048 73.0044 17.048C71.7724 17.048 70.8924 17.232 70.3644 17.6C69.8364 17.968 69.5724 18.504 69.5724 19.208C69.5724 19.944 69.9404 20.536 70.6764 20.984C71.4124 21.432 72.3564 21.656 73.5084 21.656C74.1484 21.656 74.6604 21.624 75.0444 21.56C75.4284 21.48 75.8284 21.376 76.2444 21.248C76.5804 21.136 76.8764 21.056 77.1324 21.008C77.3884 20.96 77.7164 20.936 78.1164 20.936C78.5644 20.936 78.8444 20.968 78.9564 21.032C79.0844 21.096 79.1484 21.24 79.1484 21.464C79.1484 21.624 78.8204 21.824 78.1644 22.064C77.5084 22.304 76.7724 22.52 75.9564 22.712C75.1404 22.904 74.5804 23 74.2764 23ZM82.3894 22.832C82.0374 21.088 81.7654 19.024 81.5734 16.64C81.3974 14.24 81.3094 11.92 81.3094 9.68C81.3094 8.56 81.3334 7.568 81.3814 6.704C81.3814 6.496 81.5414 6.392 81.8614 6.392C82.1174 6.392 82.2774 6.456 82.3414 6.584C82.4214 6.712 82.4614 6.912 82.4614 7.184C82.4614 9.776 82.5094 11.992 82.6054 13.832C82.7014 15.656 82.8294 17.624 82.9894 19.736C83.0854 21.096 83.1494 22.016 83.1814 22.496C83.1974 22.752 83.0614 22.88 82.7734 22.88C82.6774 22.88 82.5494 22.864 82.3894 22.832ZM100.653 13.976C100.653 14.184 100.485 14.328 100.149 14.408C99.8286 14.488 99.3086 14.536 98.5886 14.552C98.4286 15.384 98.2366 16.128 98.0126 16.784C97.8046 17.424 97.4926 18.12 97.0766 18.872L99.3806 22.4C99.2846 22.56 99.0926 22.64 98.8046 22.64L98.4206 22.616C97.6846 21.704 97.0206 20.832 96.4286 20C95.7566 21.088 95.1566 21.872 94.6286 22.352C94.1006 22.816 93.4606 23.048 92.7086 23.048C92.0686 23.048 91.5166 22.84 91.0526 22.424C90.6046 22.008 90.3806 21.448 90.3806 20.744C90.3806 20.024 90.5326 19.328 90.8366 18.656C91.1406 17.968 91.5886 17.128 92.1806 16.136C92.5806 15.448 92.8766 14.912 93.0686 14.528C93.2766 14.128 93.4366 13.736 93.5486 13.352C93.5646 12.2 93.6046 11.032 93.6686 9.848C93.7166 8.888 93.7406 8.096 93.7406 7.472C93.7406 6.72 94.0606 6.344 94.7006 6.344C95.2446 6.344 95.6766 6.592 95.9966 7.088C96.3166 7.568 96.4766 8.176 96.4766 8.912C96.4766 9.632 96.3246 10.416 96.0206 11.264C95.7326 12.096 95.2766 13.072 94.6526 14.192C94.7486 14.656 94.9406 15.184 95.2286 15.776C95.5326 16.352 95.9326 17.048 96.4286 17.864C97.2926 16.12 97.6846 14.68 97.6046 13.544C97.6046 13.368 97.8766 13.28 98.4206 13.28L99.5966 13.304C100.013 13.304 100.293 13.344 100.437 13.424C100.581 13.488 100.653 13.672 100.653 13.976ZM92.8766 21.848C93.4046 21.848 93.8926 21.64 94.3406 21.224C94.8046 20.792 95.2926 20.088 95.8046 19.112C95.0686 18.008 94.3806 16.912 93.7406 15.824C92.9566 17.168 92.4206 18.16 92.1326 18.8C91.8446 19.44 91.7006 20.088 91.7006 20.744C91.7006 21.112 91.8046 21.392 92.0126 21.584C92.2206 21.76 92.5086 21.848 92.8766 21.848ZM111.477 22.04C111.173 20.824 110.941 19.6 110.781 18.368C110.621 17.12 110.477 15.072 110.349 12.224C110.349 12.032 110.413 11.864 110.541 11.72C110.685 11.576 110.845 11.504 111.021 11.504H111.237C111.317 12.032 111.373 12.88 111.405 14.048C111.405 14.176 111.421 14.608 111.453 15.344C111.485 16.064 111.565 16.744 111.693 17.384C113.549 17.208 115.029 16.848 116.133 16.304C117.253 15.76 117.813 14.984 117.813 13.976C117.813 12.712 117.253 11.68 116.133 10.88C115.013 10.08 113.325 9.68 111.069 9.68C110.125 9.68 109.325 9.856 108.669 10.208C108.557 10.256 108.477 10.36 108.429 10.52C108.381 10.664 108.341 10.872 108.309 11.144C108.277 11.432 108.237 11.648 108.189 11.792C108.141 11.936 108.053 12.008 107.925 12.008C107.781 12.008 107.685 11.904 107.637 11.696C107.605 11.472 107.589 10.968 107.589 10.184C107.589 9.736 107.893 9.384 108.501 9.128C109.109 8.872 109.893 8.744 110.853 8.744C113.653 8.744 115.733 9.184 117.093 10.064C118.453 10.944 119.133 12.296 119.133 14.12C119.133 15.096 118.741 15.912 117.957 16.568C117.173 17.224 116.221 17.712 115.101 18.032C113.981 18.336 112.909 18.488 111.885 18.488C111.917 18.68 111.949 18.856 111.981 19.016C112.013 19.176 112.037 19.312 112.053 19.424C112.277 20.512 112.389 21.352 112.389 21.944C112.389 22.296 112.341 22.576 112.245 22.784C112.165 22.992 111.981 23.064 111.693 23L111.477 22.04ZM122.627 23C121.971 21.72 121.451 20.216 121.067 18.488C120.699 16.76 120.515 15.264 120.515 14C120.515 13.504 120.627 13.184 120.851 13.04C120.979 12.96 121.075 12.92 121.139 12.92C121.251 12.92 121.331 13.008 121.379 13.184C121.443 13.36 121.507 13.68 121.571 14.144L121.691 15.008C121.867 14.144 122.203 13.464 122.699 12.968C123.211 12.456 123.835 12.2 124.571 12.2C125.387 12.2 125.995 12.36 126.395 12.68C126.795 12.984 126.995 13.496 126.995 14.216C126.195 13.832 125.467 13.64 124.811 13.64C124.187 13.64 123.651 13.808 123.203 14.144C122.755 14.48 122.443 14.976 122.267 15.632C122.123 16.08 122.051 16.504 122.051 16.904C122.051 17.336 122.107 17.744 122.219 18.128C122.347 18.496 122.539 18.952 122.795 19.496C123.035 20.056 123.219 20.536 123.347 20.936C123.491 21.336 123.571 21.768 123.587 22.232C123.587 22.504 123.491 22.704 123.299 22.832C123.107 22.944 122.883 23 122.627 23ZM132.912 23.024C131.968 23.024 131.112 22.816 130.344 22.4C129.592 21.968 129 21.376 128.568 20.624C128.152 19.856 127.944 18.984 127.944 18.008C127.944 16.408 128.528 15.216 129.696 14.432C130.88 13.648 132.328 13.256 134.04 13.256C134.824 13.256 135.552 13.448 136.224 13.832C136.912 14.216 137.464 14.768 137.88 15.488C138.296 16.208 138.504 17.04 138.504 17.984C138.504 19.008 138.24 19.904 137.712 20.672C137.184 21.424 136.488 22.008 135.624 22.424C134.776 22.824 133.872 23.024 132.912 23.024ZM132.648 21.656C134.136 21.656 135.264 21.32 136.032 20.648C136.8 19.976 137.184 18.992 137.184 17.696C137.184 16.816 136.88 16.056 136.272 15.416C135.68 14.776 134.848 14.456 133.776 14.456C133.056 14.456 132.328 14.592 131.592 14.864C130.856 15.136 130.248 15.544 129.768 16.088C129.288 16.632 129.048 17.288 129.048 18.056C129.048 18.696 129.208 19.296 129.528 19.856C129.848 20.4 130.28 20.84 130.824 21.176C131.384 21.496 131.992 21.656 132.648 21.656ZM144.517 22.976C143.765 22.976 143.109 22.72 142.549 22.208C142.005 21.696 141.589 21.032 141.301 20.216C141.029 19.4 140.893 18.552 140.893 17.672C140.893 16.136 141.213 14.84 141.853 13.784C142.509 12.728 143.501 12.2 144.829 12.2C145.629 12.2 146.325 12.344 146.917 12.632C147.525 12.904 148.317 13.368 149.293 14.024L149.917 14.456C149.837 13.928 149.717 13.32 149.557 12.632C149.397 11.944 149.293 11.472 149.245 11.216C148.973 9.968 148.773 9.04 148.645 8.432C148.533 7.808 148.477 7.256 148.477 6.776C148.477 5.928 148.717 5.504 149.197 5.504C149.373 5.888 149.581 6.712 149.821 7.976C150.061 9.224 150.365 10.936 150.733 13.112C151.117 15.416 151.453 17.296 151.741 18.752C152.029 20.208 152.269 21.12 152.461 21.488C152.461 21.856 152.189 22.04 151.645 22.04C151.229 22.04 150.941 21.8 150.781 21.32C150.637 20.84 150.549 20 150.517 18.8H150.325C149.653 20.016 148.781 21.016 147.709 21.8C146.637 22.584 145.573 22.976 144.517 22.976ZM144.829 21.8C145.485 21.8 146.189 21.528 146.941 20.984C147.709 20.424 148.357 19.752 148.885 18.968C149.413 18.168 149.677 17.448 149.677 16.808V16.088C148.029 14.36 146.509 13.496 145.117 13.496C144.141 13.496 143.389 13.856 142.861 14.576C142.333 15.28 142.069 16.208 142.069 17.36L142.093 17.864C142.189 19.08 142.461 20.04 142.909 20.744C143.357 21.448 143.997 21.8 144.829 21.8ZM164.93 22.88C164.642 22.88 164.41 22.76 164.234 22.52C164.074 22.264 163.93 21.88 163.802 21.368C163.674 20.84 163.474 19.928 163.202 18.632C162.93 19.704 162.418 20.56 161.666 21.2C160.914 21.824 159.994 22.136 158.906 22.136C157.914 22.136 157.074 21.792 156.386 21.104C155.714 20.4 155.21 19.48 154.874 18.344C154.538 17.192 154.37 15.952 154.37 14.624C154.37 14.016 154.426 13.496 154.538 13.064C154.666 12.616 154.818 12.28 154.994 12.056C155.186 11.832 155.37 11.728 155.546 11.744C155.738 11.744 155.834 11.872 155.834 12.128C155.834 12.336 155.778 12.664 155.666 13.112C155.554 13.608 155.498 14.176 155.498 14.816C155.498 15.776 155.634 16.712 155.906 17.624C156.194 18.536 156.61 19.288 157.154 19.88C157.714 20.456 158.37 20.744 159.122 20.744C159.746 20.744 160.314 20.56 160.826 20.192C161.338 19.824 161.738 19.36 162.026 18.8C162.33 18.24 162.482 17.688 162.482 17.144V13.328C162.658 12.992 162.898 12.824 163.202 12.824C163.474 12.824 163.658 13.056 163.754 13.52C163.85 13.984 163.898 14.64 163.898 15.488C163.898 16.208 163.89 16.76 163.874 17.144C163.97 17.672 164.114 18.208 164.306 18.752C164.514 19.296 164.77 19.912 165.074 20.6C165.442 21.448 165.626 21.968 165.626 22.16C165.626 22.64 165.394 22.88 164.93 22.88ZM173.458 23.024C171.586 23.024 170.13 22.6 169.09 21.752C168.066 20.888 167.554 19.56 167.554 17.768C167.554 16.856 167.778 15.992 168.226 15.176C168.69 14.344 169.306 13.68 170.074 13.184C170.858 12.672 171.698 12.416 172.594 12.416C173.506 12.416 174.282 12.616 174.922 13.016C175.562 13.4 175.882 13.96 175.882 14.696C175.882 15.208 175.786 15.576 175.594 15.8C175.418 16.008 175.218 16.112 174.994 16.112C174.994 15.344 174.786 14.72 174.37 14.24C173.954 13.76 173.362 13.52 172.594 13.52C171.826 13.52 171.162 13.728 170.602 14.144C170.042 14.544 169.61 15.08 169.306 15.752C169.018 16.408 168.874 17.096 168.874 17.816C168.874 19.336 169.386 20.368 170.41 20.912C171.45 21.456 172.818 21.728 174.514 21.728C175.09 21.728 175.842 21.696 176.77 21.632C176.802 21.632 176.874 21.664 176.986 21.728C177.098 21.792 177.186 21.832 177.25 21.848V21.992C177.25 22.456 176.842 22.744 176.026 22.856C175.21 22.968 174.354 23.024 173.458 23.024ZM182.082 23C181.922 23.032 181.818 23.048 181.77 23.048C181.274 23.048 180.93 22.68 180.738 21.944C180.562 21.208 180.474 20.176 180.474 18.848C180.474 18.304 180.49 17.456 180.522 16.304C180.554 15.6 180.57 15.072 180.57 14.72C178.602 14.72 177.618 14.496 177.618 14.048C177.618 13.904 177.634 13.792 177.666 13.712C177.714 13.632 177.81 13.592 177.954 13.592L180.57 13.424C180.554 12.64 180.514 11.784 180.45 10.856C180.386 10.024 180.346 9.256 180.33 8.552C180.33 8.376 180.402 8.256 180.546 8.192C180.69 8.112 180.842 8.072 181.002 8.072C181.194 8.072 181.354 8.176 181.482 8.384C181.61 8.576 181.674 8.776 181.674 8.984L181.842 13.376L183.834 13.472C184.138 13.44 184.394 13.496 184.602 13.64C184.826 13.784 184.946 14.024 184.962 14.36C184.626 14.504 184.258 14.592 183.858 14.624C183.458 14.656 182.786 14.672 181.842 14.672C181.842 16.16 181.914 18.608 182.058 22.016C182.058 22.368 182.058 22.616 182.058 22.76C182.074 22.888 182.082 22.968 182.082 23ZM187.888 23.024C187.52 23.024 187.224 22.488 187 21.416C186.776 20.328 186.632 19.392 186.568 18.608C186.504 17.824 186.416 16.584 186.304 14.888C186.288 14.616 186.28 14.264 186.28 13.832C186.28 13.288 186.32 12.912 186.4 12.704C186.496 12.496 186.648 12.392 186.856 12.392C187.032 12.392 187.168 12.432 187.264 12.512C187.376 12.576 187.472 12.688 187.552 12.848L187.528 13.808C187.528 14.832 187.576 15.8 187.672 16.712C187.784 17.624 187.952 18.848 188.176 20.384C188.304 21.056 188.392 21.608 188.44 22.04C188.472 22.264 188.432 22.488 188.32 22.712C188.208 22.92 188.064 23.024 187.888 23.024ZM187.288 9.824C186.936 9.824 186.672 9.688 186.496 9.416C186.336 9.144 186.256 8.808 186.256 8.408C186.256 8.232 186.264 8.104 186.28 8.024C186.264 7.768 186.408 7.64 186.712 7.64C186.936 7.64 187.16 7.696 187.384 7.808C187.624 7.904 187.696 7.976 187.6 8.024C187.76 8.44 187.84 8.768 187.84 9.008C187.84 9.216 187.792 9.384 187.696 9.512C187.6 9.624 187.464 9.728 187.288 9.824ZM194.721 23.024C194.257 23.024 193.649 22.336 192.897 20.96C192.161 19.568 191.305 17.808 190.329 15.68L189.633 14.192C189.633 14.032 189.729 13.88 189.921 13.736C190.113 13.576 190.401 13.504 190.785 13.52C190.881 13.696 191.185 14.344 191.697 15.464C192.305 16.776 192.817 17.856 193.233 18.704C193.665 19.536 194.185 20.432 194.793 21.392C195.065 20.4 195.369 19.472 195.705 18.608C196.057 17.728 196.577 16.488 197.265 14.888L197.625 14.048C197.721 13.856 197.905 13.76 198.177 13.76C198.369 13.76 198.537 13.808 198.681 13.904C198.825 14 198.897 14.136 198.897 14.312C198.897 14.472 198.817 14.64 198.657 14.816C198.545 14.928 198.385 15.256 198.177 15.8C197.969 16.328 197.753 16.92 197.529 17.576C196.921 19.304 196.393 20.656 195.945 21.632C195.497 22.592 195.089 23.056 194.721 23.024ZM206.241 23C205.217 23 204.273 22.8 203.409 22.4C202.545 22 201.857 21.432 201.345 20.696C200.833 19.96 200.577 19.112 200.577 18.152C200.577 17.08 200.777 16.08 201.177 15.152C201.577 14.208 202.161 13.456 202.929 12.896C203.713 12.32 204.625 12.032 205.665 12.032C206.753 12.032 207.577 12.384 208.137 13.088C208.697 13.776 208.961 14.648 208.929 15.704C208.929 16.648 208.553 17.368 207.801 17.864C207.065 18.36 206.121 18.608 204.969 18.608C204.793 18.608 204.529 18.592 204.177 18.56C203.601 18.496 203.193 18.408 202.953 18.296C202.713 18.184 202.593 17.96 202.593 17.624C202.593 17.512 202.625 17.432 202.689 17.384C202.753 17.32 202.881 17.288 203.073 17.288C203.281 17.288 203.649 17.336 204.177 17.432C204.689 17.528 205.145 17.576 205.545 17.576C207.017 17.576 207.753 16.936 207.753 15.656C207.753 14.888 207.609 14.28 207.321 13.832C207.049 13.384 206.561 13.16 205.857 13.16C205.089 13.16 204.401 13.368 203.793 13.784C203.185 14.184 202.713 14.712 202.377 15.368C202.057 16.024 201.897 16.72 201.897 17.456C201.897 18.72 202.249 19.76 202.953 20.576C203.657 21.376 204.745 21.776 206.217 21.776C206.393 21.776 206.689 21.76 207.105 21.728C207.281 21.712 207.497 21.664 207.753 21.584C208.009 21.504 208.193 21.448 208.305 21.416C208.993 21.176 209.497 21.056 209.817 21.056C210.057 21.056 210.241 21.12 210.369 21.248C209.969 21.856 209.369 22.304 208.569 22.592C207.785 22.864 207.009 23 206.241 23Z" fill="#757070"/>
</svg>
