<svg width="242" height="143" viewBox="0 0 242 143" fill="none" xmlns="http://www.w3.org/2000/svg">
<path d="M8.784 29.088C10.096 29.088 11.112 28.904 11.832 28.536C12.552 28.168 12.912 27.632 12.912 26.928C12.912 26.304 12.696 25.768 12.264 25.32C11.832 24.856 11.296 24.464 10.656 24.144C10.016 23.824 9.144 23.448 8.04 23.016C7.944 22.984 7.712 22.896 7.344 22.752C5.84 22.144 4.68 21.536 3.864 20.928C3.064 20.32 2.664 19.536 2.664 18.576C2.664 17.504 3.088 16.696 3.936 16.152C4.784 15.608 5.872 15.336 7.2 15.336C8.176 15.336 9.072 15.464 9.888 15.72C10.72 15.96 11.376 16.296 11.856 16.728C12.352 17.16 12.6 17.648 12.6 18.192C12.408 18.288 12.224 18.336 12.048 18.336C11.856 18.336 11.656 18.296 11.448 18.216C11.256 18.12 10.968 17.968 10.584 17.76C9.96 17.424 9.376 17.16 8.832 16.968C8.288 16.76 7.648 16.656 6.912 16.656C5.984 16.656 5.232 16.816 4.656 17.136C4.08 17.456 3.792 17.904 3.792 18.48C3.792 18.928 3.984 19.336 4.368 19.704C4.768 20.072 5.264 20.4 5.856 20.688C6.464 20.96 7.272 21.288 8.28 21.672C9.56 22.168 10.616 22.632 11.448 23.064C12.28 23.496 12.984 24.048 13.56 24.72C14.152 25.376 14.448 26.16 14.448 27.072C14.448 28.144 13.936 28.976 12.912 29.568C11.888 30.144 10.616 30.432 9.096 30.432C7.896 30.432 6.712 30.256 5.544 29.904C4.376 29.552 3.376 29.032 2.544 28.344C1.712 27.64 1.184 26.8 0.96 25.824C0.96 25.392 1.08 25.024 1.32 24.72C1.56 24.4 1.856 24.24 2.208 24.24C2.208 25.28 2.496 26.168 3.072 26.904C3.664 27.624 4.456 28.168 5.448 28.536C6.456 28.904 7.568 29.088 8.784 29.088ZM17.9664 30.024C17.5984 30.024 17.3024 29.488 17.0784 28.416C16.8544 27.328 16.7104 26.392 16.6464 25.608C16.5824 24.824 16.4944 23.584 16.3824 21.888C16.3664 21.616 16.3584 21.264 16.3584 20.832C16.3584 20.288 16.3984 19.912 16.4784 19.704C16.5744 19.496 16.7264 19.392 16.9344 19.392C17.1104 19.392 17.2464 19.432 17.3424 19.512C17.4544 19.576 17.5504 19.688 17.6304 19.848L17.6064 20.808C17.6064 21.832 17.6544 22.8 17.7504 23.712C17.8624 24.624 18.0304 25.848 18.2544 27.384C18.3824 28.056 18.4704 28.608 18.5184 29.04C18.5504 29.264 18.5104 29.488 18.3984 29.712C18.2864 29.92 18.1424 30.024 17.9664 30.024ZM17.3664 16.824C17.0144 16.824 16.7504 16.688 16.5744 16.416C16.4144 16.144 16.3344 15.808 16.3344 15.408C16.3344 15.232 16.3424 15.104 16.3584 15.024C16.3424 14.768 16.4864 14.64 16.7904 14.64C17.0144 14.64 17.2384 14.696 17.4624 14.808C17.7024 14.904 17.7744 14.976 17.6784 15.024C17.8384 15.44 17.9184 15.768 17.9184 16.008C17.9184 16.216 17.8704 16.384 17.7744 16.512C17.6784 16.624 17.5424 16.728 17.3664 16.824ZM36.2469 30.024C36.0069 30.024 35.8629 29.96 35.8149 29.832C35.7669 29.688 35.7429 29.472 35.7429 29.184C35.7589 29.072 35.7669 28.944 35.7669 28.8C35.7669 28.64 35.7749 28.52 35.7909 28.44C35.8869 27.672 35.9349 26.944 35.9349 26.256C35.9349 24.736 35.6789 23.552 35.1669 22.704C34.6549 21.84 33.8469 21.408 32.7429 21.408C32.1349 21.408 31.5269 21.56 30.9189 21.864C30.3269 22.168 29.8389 22.544 29.4549 22.992C29.0869 23.44 28.9029 23.848 28.9029 24.216C28.9829 24.68 29.1269 25.248 29.3349 25.92C29.3509 26 29.4149 26.248 29.5269 26.664C29.6549 27.08 29.7189 27.456 29.7189 27.792L29.7429 28.248C29.7429 28.504 29.6149 28.632 29.3589 28.632C29.0389 28.632 28.7749 28.424 28.5669 28.008C28.3749 27.592 28.1589 26.944 27.9189 26.064C27.6789 25.2 27.4469 24.488 27.2229 23.928C26.9989 23.368 26.6949 22.888 26.3109 22.488C25.9269 22.088 25.4389 21.888 24.8469 21.888C24.0309 21.888 23.3909 22.168 22.9269 22.728C22.4789 23.288 22.2549 23.976 22.2549 24.792C22.2549 25.336 22.3029 26.056 22.3989 26.952C22.4789 27.624 22.5189 28.2 22.5189 28.68C22.5189 28.968 22.4869 29.184 22.4229 29.328C22.3589 29.472 22.2069 29.544 21.9669 29.544C21.6469 29.544 21.4229 29.44 21.2949 29.232C21.1669 29.008 21.1029 28.672 21.1029 28.224C21.1029 27.344 21.0549 26.28 20.9589 25.032C20.9429 24.872 20.9109 24.464 20.8629 23.808C20.8149 23.136 20.8069 22.464 20.8389 21.792L20.8629 21C20.9589 20.904 21.0709 20.856 21.1989 20.856C21.3749 20.856 21.5189 20.968 21.6309 21.192C21.7589 21.4 21.8229 21.72 21.8229 22.152C22.0629 21.736 22.4149 21.36 22.8789 21.024C23.3429 20.688 23.8309 20.52 24.3429 20.52C25.2229 20.52 25.9509 20.704 26.5269 21.072C27.1189 21.424 27.6549 22 28.1349 22.8C28.5829 21.984 29.2549 21.288 30.1509 20.712C31.0629 20.136 31.9989 19.848 32.9589 19.848C33.9509 19.848 34.7749 20.224 35.4309 20.976C36.1029 21.728 36.5909 22.632 36.8949 23.688C37.2149 24.744 37.3749 25.72 37.3749 26.616C37.3749 27.416 37.3029 28.184 37.1589 28.92C37.0309 29.656 36.7269 30.024 36.2469 30.024ZM42.1358 38.544C41.8158 38.544 41.4318 37.688 40.9838 35.976C40.5518 34.264 40.1598 32.36 39.8078 30.264C39.4718 28.184 39.3038 26.872 39.3038 26.328C39.3038 24.712 39.8478 23.536 40.9358 22.8C42.0238 22.048 43.4238 21.672 45.1358 21.672C46.0478 21.672 46.9118 21.864 47.7278 22.248C48.5438 22.616 49.1998 23.152 49.6958 23.856C50.1918 24.544 50.4398 25.344 50.4398 26.256C50.4398 27.392 50.0398 28.192 49.2398 28.656C48.4558 29.12 47.4638 29.352 46.2638 29.352C45.0158 29.352 43.9518 29.144 43.0718 28.728C42.2078 28.296 41.7758 27.712 41.7758 26.976L41.7998 26.736C41.9118 26.608 42.0318 26.544 42.1598 26.544C42.2718 26.544 42.3918 26.592 42.5198 26.688C42.6638 26.768 42.8158 26.864 42.9758 26.976C43.4718 27.344 43.9598 27.64 44.4398 27.864C44.9358 28.088 45.5518 28.2 46.2878 28.2C47.2958 28.2 48.0078 28.024 48.4238 27.672C48.8558 27.304 49.0718 26.728 49.0718 25.944C49.0718 25.368 48.8798 24.856 48.4958 24.408C48.1118 23.96 47.6158 23.616 47.0078 23.376C46.3998 23.136 45.7758 23.016 45.1358 23.016C43.6478 23.016 42.5278 23.336 41.7758 23.976C41.0238 24.6 40.6878 25.648 40.7678 27.12C40.9118 29.616 41.1358 31.712 41.4398 33.408C41.7598 35.104 42.3118 36.544 43.0958 37.728L43.1198 37.776C43.1198 37.808 43.0798 37.84 42.9998 37.872C42.9358 37.92 42.8878 37.96 42.8558 37.992C42.6638 38.296 42.4238 38.48 42.1358 38.544ZM52.9519 29.832C52.5999 28.088 52.3279 26.024 52.1359 23.64C51.9599 21.24 51.8719 18.92 51.8719 16.68C51.8719 15.56 51.8959 14.568 51.9439 13.704C51.9439 13.496 52.1039 13.392 52.4239 13.392C52.6799 13.392 52.8399 13.456 52.9039 13.584C52.9839 13.712 53.0239 13.912 53.0239 14.184C53.0239 16.776 53.0719 18.992 53.1679 20.832C53.2639 22.656 53.3919 24.624 53.5519 26.736C53.6479 28.096 53.7119 29.016 53.7439 29.496C53.7599 29.752 53.6239 29.88 53.3359 29.88C53.2399 29.88 53.1119 29.864 52.9519 29.832ZM61.3271 30C60.3031 30 59.3591 29.8 58.4951 29.4C57.6311 29 56.9431 28.432 56.4311 27.696C55.9191 26.96 55.6631 26.112 55.6631 25.152C55.6631 24.08 55.8631 23.08 56.2631 22.152C56.6631 21.208 57.2471 20.456 58.0151 19.896C58.7991 19.32 59.7111 19.032 60.7511 19.032C61.8391 19.032 62.6631 19.384 63.2231 20.088C63.7831 20.776 64.0471 21.648 64.0151 22.704C64.0151 23.648 63.6391 24.368 62.8871 24.864C62.1511 25.36 61.2071 25.608 60.0551 25.608C59.8791 25.608 59.6151 25.592 59.2631 25.56C58.6871 25.496 58.2791 25.408 58.0391 25.296C57.7991 25.184 57.6791 24.96 57.6791 24.624C57.6791 24.512 57.7111 24.432 57.7751 24.384C57.8391 24.32 57.9671 24.288 58.1591 24.288C58.3671 24.288 58.7351 24.336 59.2631 24.432C59.7751 24.528 60.2311 24.576 60.6311 24.576C62.1031 24.576 62.8391 23.936 62.8391 22.656C62.8391 21.888 62.6951 21.28 62.4071 20.832C62.1351 20.384 61.6471 20.16 60.9431 20.16C60.1751 20.16 59.4871 20.368 58.8791 20.784C58.2711 21.184 57.7991 21.712 57.4631 22.368C57.1431 23.024 56.9831 23.72 56.9831 24.456C56.9831 25.72 57.3351 26.76 58.0391 27.576C58.7431 28.376 59.8311 28.776 61.3031 28.776C61.4791 28.776 61.7751 28.76 62.1911 28.728C62.3671 28.712 62.5831 28.664 62.8391 28.584C63.0951 28.504 63.2791 28.448 63.3911 28.416C64.0791 28.176 64.5831 28.056 64.9031 28.056C65.1431 28.056 65.3271 28.12 65.4551 28.248C65.0551 28.856 64.4551 29.304 63.6551 29.592C62.8711 29.864 62.0951 30 61.3271 30Z" fill="#6B6969"/>
<path d="M112.414 24.2914C120.134 24.1877 127.542 24.1159 134.944 24.019C136.42 24.0057 137.462 23.9948 139.321 23.7034C140.704 23.4999 143.628 23.0118 143.13 21.7302C142.595 20.7146 142.069 20.0603 139.51 19.859C132.897 19.3694 126.218 19.7733 119.59 20.1417C113.738 20.4707 109.277 20.8019 104.106 21.3679C101.691 21.6324 100.933 22.8609 101.574 24.7639C102.15 26.4716 102.707 28.2346 103.634 29.7999C106.94 35.461 110.401 41.0158 113.814 46.6312C114.233 47.3313 114.513 47.9017 115.146 48.6658C115.925 49.5846 116.433 50.2942 117.582 49.771C118.681 49.2831 118.347 47.7898 118.012 47.0742C115.36 41.0331 109.656 28.6621 109.522 27.9353C113.583 29.3625 117.377 30.6055 121.092 32.0447C146.906 42.18 171.624 53.9171 192.705 70.9128C209.392 84.3659 223.942 99.4316 235.807 116.6C236.515 117.609 237.331 118.573 238.137 119.487C239.209 120.74 240.021 121.212 240.802 120.731C242.139 119.655 241.66 118.629 241.358 117.778C240.782 116.07 239.79 114.465 238.835 112.905C225.818 92.1658 208.072 75.1764 187.674 60.3092C166.741 45.0487 142.697 34.7679 117.515 26.3299C116.166 25.9311 112.946 24.6597 112.414 24.2914Z" fill="#DBDBDB"/>
</svg>
