<svg width="541" height="61" viewBox="0 0 541 61" fill="none" xmlns="http://www.w3.org/2000/svg">
<path fill-rule="evenodd" clip-rule="evenodd" d="M269.204 0.227523C269.089 0.377578 262.173 0.781648 253.835 1.12589C237.936 1.78201 232.273 2.15568 225.279 3.01089C222.952 3.29433 217.22 3.79157 212.541 4.11522C207.862 4.43887 201.674 5.13128 198.791 5.655C195.908 6.17872 192.505 6.58769 191.23 6.56219C189.953 6.53767 188.588 6.79267 188.196 7.13005C187.803 7.46841 185.674 7.90484 183.464 8.10099C178.321 8.55802 173.805 9.21905 166.756 10.546C163.653 11.1296 160.163 11.7602 159 11.9475C157.836 12.1338 156.091 12.5036 155.122 12.7684C154.152 13.0332 151.455 13.5755 149.128 13.9737C146.801 14.3719 144.58 15.03 144.193 15.436C143.805 15.843 142.694 16.0863 141.725 15.9764C140.755 15.8666 139.442 16.1255 138.806 16.5502C138.171 16.9758 136.585 17.4122 135.281 17.5191C133.978 17.626 132.606 17.9409 132.234 18.2184C131.862 18.496 130.117 18.8412 128.356 18.9854C126.595 19.1295 123.886 19.6807 122.335 20.2103C115.115 22.6769 112.691 23.2654 112.044 22.7083C111.659 22.3778 110.897 22.623 110.351 23.2536C109.805 23.8832 108.734 24.1235 107.971 23.7871C106.964 23.3428 106.458 23.7253 106.126 25.1798C105.719 26.9638 105.551 27.0226 104.61 25.7133C103.905 24.7326 103.156 24.5237 102.367 25.0876C101.715 25.5525 100.785 25.7359 100.3 25.4946C99.8024 25.2455 99.4139 25.8379 99.4083 26.853C99.4012 27.9475 99.1946 28.228 98.8794 27.5699C98.1835 26.1174 96.0922 26.4322 81.4388 30.1944C77.173 31.2889 72.9276 32.709 72.0039 33.3494C71.081 33.9899 69.5495 34.3724 68.6011 34.1988C66.6304 33.8398 59.9355 35.8788 59.9298 36.8399C59.9277 37.1901 58.4223 37.6 56.5848 37.7491C51.6633 38.1502 48.0898 39.7292 47.7253 41.6652C47.4249 43.257 47.4002 43.256 47.3234 41.6456C47.2409 39.9156 45.7954 39.3261 44.8527 40.6374C44.5728 41.0268 43.4883 41.4004 42.4434 41.4681C41.3984 41.5348 39.5913 42.1605 38.4279 42.8568C37.2644 43.5532 35.5983 44.0671 34.7261 43.9984C33.5387 43.9053 33.1396 44.4123 33.1396 46.0119C33.1396 48.0882 33.1107 48.095 32.1497 46.2669C31.1773 44.4182 31.0624 44.4241 25.6275 46.6445C22.585 47.8881 19.1434 49.4867 17.98 50.1968C15.7061 51.5855 13.3687 52.8723 12.5155 53.2077C12.225 53.3215 11.7483 53.5225 11.4578 53.653C11.1673 53.7844 10.7217 53.854 10.4679 53.8069C10.2141 53.7608 9.62459 54.363 9.15711 55.1457C8.46118 56.3118 8.64874 56.7502 10.1929 57.5662C12.7566 58.9225 13.2121 58.8372 14.0456 56.8473C14.4446 55.895 14.7739 55.6762 14.7859 56.3569C14.8113 57.8349 17.2079 57.9643 19.0574 56.5874C19.7935 56.0391 21.2799 55.4311 22.3608 55.2359C24.8512 54.7847 28.3442 53.5608 29.2616 52.8174C29.6494 52.5025 30.6013 52.1171 31.3769 51.9602C32.1525 51.8033 33.263 51.3835 33.8447 51.0275C34.4264 50.6705 35.6674 50.2556 36.6031 50.1046C37.538 49.9536 38.5646 49.2572 38.8834 48.557C39.2331 47.791 39.4679 47.7184 39.4749 48.3746C39.4904 49.933 43.176 48.8581 44.2449 46.9838C44.7751 46.0541 45.1263 45.904 45.1263 46.6072C45.1263 47.8067 48.0729 48.2529 48.8506 47.1712C49.2673 46.5925 54.0112 45.6824 56.5841 45.6893C57.2631 45.6902 57.8181 45.3499 57.8181 44.9311C57.8181 44.5124 59.2825 44.0936 61.0728 43.9994C62.8623 43.9053 64.6871 43.5149 65.1271 43.1334C65.5671 42.7509 66.8786 42.339 68.042 42.2184C70.8814 41.9242 73.1257 41.3779 76.5032 40.1608C78.0544 39.6027 79.7995 39.129 80.3812 39.1094C82.4626 39.0388 88.5286 37.9698 90.6051 37.3078C91.7685 36.937 93.5136 36.5212 94.4832 36.3849C95.4527 36.2476 97.6737 35.6483 99.4188 35.0511C101.164 34.4548 103.693 33.7427 105.039 33.4681C106.385 33.1945 107.733 32.4393 108.036 31.791C108.458 30.8838 108.721 30.9025 109.17 31.8715C109.737 33.0915 112.111 32.5541 112.111 31.2065C112.111 30.8397 112.745 30.4729 113.521 30.3915C114.296 30.3101 114.931 30.6436 114.931 31.1329C114.931 31.6214 115.328 31.844 115.812 31.6263C116.297 31.4095 118.433 30.9672 120.557 30.6436C122.927 30.2826 124.652 29.4794 125.021 28.5634C125.417 27.5787 125.902 27.3835 126.446 27.9906C127.524 29.195 131.851 28.2623 131.864 26.8235C131.871 26.1321 132.099 26.2017 132.467 27.0069C132.945 28.0554 133.282 27.9945 134.219 26.6911C134.857 25.8045 135.379 25.5505 135.379 26.1292C135.379 27.5817 138.597 27.4522 139.736 25.9536C140.248 25.2798 142.016 24.7914 143.664 24.8689C145.312 24.9474 146.66 24.608 146.66 24.1147C146.66 23.6224 147.435 23.49 148.383 23.8205C149.331 24.151 150.52 24.0657 151.026 23.6302C151.533 23.1957 152.582 22.823 153.358 22.8025C154.134 22.7828 154.689 22.215 154.593 21.5402C154.385 20.0956 155.601 19.8671 155.944 21.2862C156.22 22.4278 160.793 23.3379 161.82 22.4562C162.208 22.1238 163.16 21.8246 163.935 21.7913C164.711 21.7589 166.04 21.1911 166.889 20.5301C167.911 19.7347 168.583 19.666 168.877 20.328C169.121 20.8772 169.562 21.1195 169.857 20.8665C170.99 19.8926 180.407 18.1576 185.867 17.9163C189.01 17.7771 191.885 17.4034 192.256 17.0847C192.626 16.7659 194.656 16.3962 196.765 16.2618C198.874 16.1284 201.377 15.4596 202.326 14.775C203.584 13.8678 204.304 13.8207 204.98 14.6014C205.572 15.285 207.118 15.4125 209.248 14.9515C211.085 14.5543 213.698 14.3327 215.055 14.4582C216.412 14.5847 217.999 14.6397 218.58 14.5808C219.162 14.521 222.23 14.2778 225.399 14.0375C228.567 13.7982 231.8 13.1254 232.583 12.5428C233.366 11.9593 234.172 11.8524 234.373 12.3045C234.788 13.2391 237.354 13.1626 238.049 12.1956C238.302 11.8445 239.108 12.0024 239.841 12.5477C240.573 13.094 241.424 13.3235 241.732 13.0587C242.468 12.4261 266.208 11.2963 279.382 11.2669C285.142 11.2541 289.6 10.8608 289.389 10.3852C289.179 9.91244 289.317 9.52602 289.695 9.52602C290.073 9.52602 290.517 10.0782 290.68 10.752C290.914 11.7219 291.195 11.7268 292.024 10.7755C292.604 10.1096 293.364 9.94186 293.726 10.4009C294.771 11.7258 298.867 12.4948 299.33 11.4522C299.563 10.9285 300.527 10.7696 301.473 11.1001C302.661 11.515 303.196 11.2884 303.203 10.3675C303.211 9.44266 303.372 9.37597 303.732 10.1488C304.038 10.8079 306.264 11.2551 309.186 11.2453C311.9 11.2355 316.184 11.2541 318.704 11.2855C321.225 11.3169 323.605 11.3218 323.993 11.2953C326.424 11.1286 340.823 12.5036 341.131 12.9322C341.337 13.2185 342.049 12.7694 342.713 11.9338C343.802 10.5617 344.027 10.5617 345.012 11.9318C346.579 14.112 348.065 13.9502 346.831 11.7327C345.922 10.1007 345.946 10.1007 347.318 11.719C348.257 12.8272 349.001 13.0881 349.449 12.4644C349.898 11.8406 350.99 11.8681 352.577 12.5408C353.919 13.1087 358.666 13.756 363.126 13.9786C367.585 14.2013 371.234 14.4308 371.234 14.4886C371.234 14.7672 375.401 15.3291 381.458 15.8685C385.142 16.1951 390.536 16.7139 393.445 17.019C396.353 17.325 400.478 17.7163 402.611 17.8899C410.345 18.5175 415.282 19.1923 416.688 19.8131C417.551 20.1946 418.123 20.0063 418.123 19.3414C418.123 18.7343 418.476 18.5401 418.907 18.9108C419.338 19.2816 421.554 19.718 423.83 19.8798C426.106 20.0426 428.289 20.4516 428.682 20.79C429.076 21.1273 431.847 21.4039 434.84 21.4039C437.867 21.4039 440.712 21.8982 441.249 22.518C442.105 23.5066 446.887 24.1755 454.965 24.4383C456.419 24.4854 457.609 24.9268 457.609 25.4191C457.609 25.9114 457.852 26.1056 458.149 25.8496C458.446 25.5946 460.188 25.7751 462.021 26.2508C463.852 26.7274 466.544 27.206 468.003 27.3149C469.46 27.4247 471.008 27.8867 471.443 28.3427C471.879 28.7988 474.417 29.3539 477.084 29.5765C479.752 29.7991 482.49 30.2817 483.169 30.6475C483.847 31.0133 484.858 31.0692 485.414 30.772C485.971 30.4749 486.546 30.7289 486.691 31.3369C486.837 31.944 488.575 32.4952 490.553 32.5609C492.532 32.6276 494.604 33.2043 495.158 33.8447C495.713 34.4852 496.305 34.8157 496.474 34.5813C496.643 34.3459 497.964 34.5244 499.409 34.9775C500.928 35.4541 502.203 35.4277 502.431 34.9157C502.648 34.4283 503.256 34.6293 503.784 35.3629C504.31 36.0965 506.283 36.9498 508.167 37.2607C512.373 37.9531 513.562 38.3042 514.017 38.9888C514.211 39.281 516.763 40.2902 519.688 41.2317C522.614 42.1733 525.866 43.563 526.916 44.3201C527.965 45.0782 528.824 45.4343 528.824 45.1136C528.824 44.7919 529.379 45.192 530.058 46.0031C531.203 47.3712 533.484 48.964 534.582 49.1621C534.84 49.2082 535.29 49.577 535.581 49.982C535.872 50.3861 536.657 50.7176 537.327 50.7176C537.996 50.7176 538.727 51.3796 538.95 52.1887C539.173 52.9978 539.66 53.6598 540.031 53.6598C540.921 53.6598 541.358 50.4969 540.641 49.2464C537.501 43.767 533.807 39.9293 531.672 39.9293C530.881 39.9293 530.234 39.4968 530.234 38.9672C530.234 38.4386 529.395 37.7118 528.369 37.3539C527.344 36.9959 525.916 35.8847 525.196 34.8833C524.477 33.883 523.158 33.064 522.266 33.064C521.374 33.064 520.343 32.6502 519.975 32.1441C519.607 31.638 518.512 31.0633 517.542 30.8672C516.573 30.671 514.734 29.7393 513.455 28.7958C512.176 27.8533 509.72 26.9932 507.995 26.8853C506.271 26.7774 504.858 26.3851 504.855 26.0144C504.852 25.6437 504.295 25.3426 503.616 25.3446C501.989 25.3514 499.389 24.6374 496.565 23.4095C495.305 22.8613 494.274 22.6181 494.274 22.8691C494.274 23.1202 493.667 22.874 492.925 22.3219C492.183 21.7687 490.041 21.2411 488.166 21.1479C486.29 21.0548 484.279 20.6458 483.697 20.2407C481.583 18.7657 474.046 17.0788 468.43 16.8238C465.268 16.6796 462.029 16.0765 461.231 15.4831C460.433 14.8888 459.53 14.4837 459.224 14.5818C458.917 14.6799 457.556 14.4376 456.199 14.0434C452.168 12.8723 449.799 12.4722 443.982 11.9789C440.947 11.7219 438.197 11.2816 437.87 11.0001C437.542 10.7186 435.583 10.289 433.516 10.0448C431.449 9.80063 427.695 9.31222 425.174 8.95817C422.654 8.60509 419.005 8.16572 417.066 7.98134C415.127 7.79794 411.954 7.3517 410.015 6.99078C408.076 6.62987 403.951 6.1444 400.848 5.91196C394.753 5.45591 391.407 5.13128 383.855 4.26233C370.407 2.71667 364.639 2.51463 363.259 3.54246C362.147 4.37021 361.58 4.29372 360.802 3.21097C360.245 2.43715 358.558 1.82713 357.051 1.85459C355.544 1.88205 350.822 1.60548 346.556 1.23966C333.389 0.110811 283.182 -0.160856 282.247 0.891489C281.778 1.41815 280.992 1.50152 280.499 1.07783C279.669 0.364829 269.675 -0.388389 269.204 0.227523ZM420.015 17.5564C419.79 18.3381 419.623 18.1056 419.589 16.9631C419.559 15.9293 419.725 15.3507 419.959 15.6763C420.193 16.0019 420.219 16.8483 420.015 17.5564ZM153.488 21.4794C153.263 22.2611 153.096 22.0286 153.062 20.8861C153.032 19.8524 153.198 19.2737 153.432 19.5993C153.666 19.9249 153.692 20.7713 153.488 21.4794ZM130.679 24.7993C130.141 26.746 129.953 26.5666 129.565 23.7381C129.298 21.7991 129.421 21.503 130.146 22.3386C130.651 22.9221 130.891 24.0294 130.679 24.7993ZM119.867 28.1603C119.867 28.6997 119.727 29.141 119.556 29.141C119.384 29.141 119.049 28.6997 118.809 28.1603C118.569 27.6209 118.71 27.1795 119.12 27.1795C119.53 27.1795 119.867 27.6209 119.867 28.1603ZM5.08094 56.709C3.77369 57.3896 3.59741 57.8996 4.16219 59.3668C4.67692 60.7055 5.42573 61.0665 7.01361 60.7418C8.19747 60.5006 9.16628 59.9249 9.16628 59.4639C9.16628 59.003 8.71572 58.8657 8.16504 59.1599C7.54314 59.4914 7.07496 58.9676 6.93112 57.78C6.74215 56.2235 6.39595 56.0234 5.08094 56.709ZM0 58.2821C0 58.9765 0.336331 59.5443 0.746698 59.5443C1.15706 59.5443 1.28258 60.018 1.02521 60.5977C0.760098 61.1949 1.16976 61.1194 1.97145 60.4231C2.74847 59.7473 3.23217 58.6411 3.04532 57.9653C2.60463 56.3657 0 56.6364 0 58.2821Z" fill="#C5C5C5"/>
</svg>
